<svg xmlns="http://www.w3.org/2000/svg" xmlns:xlink="http://www.w3.org/1999/xlink" width="667.225" height="485.255" viewBox="0 0 667.225 485.255">
    <defs>
        <style>
            .cls-1{fill:#3c56ff}.cls-2{fill:url(#linear-gradient)}.cls-3{fill:url(#linear-gradient-2)}.cls-4{fill:#f6bac2}.cls-5{fill:#b77983}.cls-13,.cls-6{opacity:.05}.cls-7{fill:#d39999}.cls-49,.cls-8{fill:none}.cls-9{fill:#4b4442}.cls-10{fill:#8499f0}.cls-11,.cls-30{fill:#fff}.cls-11,.cls-35,.cls-37{opacity:.1}.cls-12{fill:#7e646b}.cls-14{fill:#b7b6cc}.cls-15,.cls-19,.cls-23,.cls-27,.cls-32{opacity:.5}.cls-16{fill:url(#linear-gradient-3)}.cls-17{fill:#f9fafb}.cls-18,.cls-19,.cls-20{fill:#f7b643}.cls-20,.cls-24,.cls-28,.cls-33{opacity:.3}.cls-21{fill:url(#linear-gradient-4)}.cls-22,.cls-23,.cls-24{fill:#f97878}.cls-25{fill:url(#linear-gradient-5)}.cls-26,.cls-27,.cls-28{fill:#73b53b}.cls-29{fill:url(#linear-gradient-6)}.cls-31,.cls-32,.cls-33,.cls-37{fill:#6c63ff}.cls-34{fill:#e6ecf8}.cls-36{fill:#3c82ff}.cls-38{fill:#a8a8a8}.cls-39,.cls-42{opacity:.2}.cls-40{fill:url(#linear-gradient-7)}.cls-41{fill:#f6f7f9}.cls-43{fill:url(#linear-gradient-8)}.cls-44{fill:#ae6e79}.cls-45{fill:#bebed0}.cls-46{fill:#5c5c8e}.cls-47{fill:#42383c}.cls-48{fill:#e6e8ee}.cls-49{stroke:#565987;stroke-miterlimit:10}.cls-50{fill:#ffd037}
        </style>
        <linearGradient id="linear-gradient" x1=".5" x2=".5" y1="1" gradientUnits="objectBoundingBox">
            <stop offset="0" stop-color="gray" stop-opacity=".251"/>
            <stop offset=".54" stop-color="gray" stop-opacity=".122"/>
            <stop offset="1" stop-color="gray" stop-opacity=".102"/>
        </linearGradient>
        <linearGradient id="linear-gradient-2" x1=".5" x2=".5" y1="1" xlink:href="#linear-gradient"/>
        <linearGradient id="linear-gradient-3" x1="-.211" x2="-.211" y1="3.614" y2=".343" xlink:href="#linear-gradient"/>
        <linearGradient id="linear-gradient-4" x1="-.036" x2="-.036" y1="4.542" y2="1.284" xlink:href="#linear-gradient"/>
        <linearGradient id="linear-gradient-5" x1="-.017" x2="-.017" y1="4.446" y2="1.187" xlink:href="#linear-gradient"/>
        <linearGradient id="linear-gradient-6" x1="-1.04" x2="-1.04" y1="1.715" y2=".715" xlink:href="#linear-gradient"/>
        <linearGradient id="linear-gradient-7" x1=".551" x2=".551" y1=".784" y2=".225" xlink:href="#linear-gradient"/>
        <linearGradient id="linear-gradient-8" x1=".5" x2=".5" y1="1" xlink:href="#linear-gradient"/>
    </defs>
    <g id="undraw_upload_87y9" transform="translate(0 -.002)">
        <path id="Path_9973" d="M354.825 75.6c-21.877-8.7-45-15.976-68.6-15.05-34.725 1.336-67.985 21.744-84.325 51.711-13.843 25.386-15.55 55.146-21.512 83.317-7.345 34.715-21.412 67.7-36.445 99.967-8.075 17.306-16.592 35.031-17.916 54.029-1.842 26.37 11.054 52.654 31.271 70.213s47.086 26.8 74.025 28.816c14.344 1.076 29.329.081 42.071-6.446 13.478-6.906 23.3-19.389 36.833-26.192 12.543-6.331 27.21-7.194 41.289-6.371a188.51 188.51 0 0 1 53.908 11.2c19.676 7.228 37.975 17.691 57.61 25.017s41.571 11.418 61.641 5.3c18.834-5.755 33.749-19.683 47.186-33.811a593.973 593.973 0 0 0 60.152-74.414c12.119-17.749 23.4-36.476 28.758-57.166 10.241-39.549-3.855-84.175-35.132-111.189-25.9-22.376-60.676-32.091-94.714-37.984-31.035-5.375-66.921-5.709-95.49-19.717-27.25-13.38-52.041-29.868-80.61-41.23z" class="cls-1" data-name="Path 9973" transform="translate(-71.346 -42.732)"/>
        <path id="Path_9974" d="M832.7 143.173c-8.432.337-8.857 22.107-8.331 23.057s-1.913 10.776-1.913 10.776-3.826 14.9-3.383 17.666-2.061 4.582-2.061 4.582c-3.744 1.476-8.438 6.235-9.683 7.54l-.313.337s-3.625 2.362-4.263 3.295-2.362.189-2.362.189a46.036 46.036 0 0 0-5.539-.283c-.437.13-1.122-.673-1.512-1.181-.183-.242-.3-.425-.3-.425l-.148-4.393a3.586 3.586 0 0 0-.59-.366c.1-.5.224-1.01.378-1.535a13.155 13.155 0 0 0 5.367-4.818c.142-.224.272-.455.4-.685a1.772 1.772 0 0 0 1.116.313 2.214 2.214 0 0 0 .52-.047 4.2 4.2 0 0 0 1.512-.762 8.086 8.086 0 0 0 2.81-3.295 5.3 5.3 0 0 0 .266-.785c-.089.148-.183.3-.278.437a4.54 4.54 0 0 0-.313-3.832 12.586 12.586 0 0 1-1.476-2.173c-.5-1.423.443-2.893 1.021-4.287a7.211 7.211 0 0 0 .526-4.039 5.161 5.161 0 0 0-2.185-3.407c-2.32-1.506-5.468-.679-8.154-1.405a22.1 22.1 0 0 1-2.8-1.128 21.25 21.25 0 0 0-4.293-1.334c-1.458-.289-3.224-.319-4.133.821a8.554 8.554 0 0 0-.673 1.14 4.221 4.221 0 0 1-2.639 1.9 9.9 9.9 0 0 1-1.624.171 1.576 1.576 0 0 0 0-.673c-.685-2.244 1.275-3.909 3.826-4.913s12.252-8.644 13.38-10.457 9.022-7.5 9.022-7.5 11.809-3.342 15.682-15.517-18.529 8.5-20.784 9.123a22.982 22.982 0 0 0-5.485 2.952l-14.366 8.308a52.03 52.03 0 0 0-7.747 5.35c-3.478 3.005-5.68 8.113-5.68 8.113s-1.376 2.244-3.383 5.491a14.953 14.953 0 0 1-4.381 4.659l.065-.118c-.16.195-5.1 6.436-5.538 9.164S749.8 203.04 749.8 203.04s-1.771 8.733-2.988 10.451c0 0-.986 5.013-1.571 5.686s-2.952 7.776-2.551 8.5c0 0-2.256 4.919-1.86 6.778l-4.068 9.743s-2.209 4.818-2.061 7.635c.071 1.364.13 2.952.171 4.251v1.181c-.219.366-.78 1.3-1.364 2.427-.838 1.641-1.73 3.69-1.677 4.954.094 2.22.1 7.641-.921 9.63l-.3-.118a4.134 4.134 0 0 0-.591 1.96l.071.035c0 .171-.053.348-.071.537-.248 2.261.112 5.409-.454 6.1-.786.956-.4 22.154-.4 22.154s-1.276 13.268 1.275 21.676l-.195 6.584s-.1 6.206.195 7.085a69.167 69.167 0 0 1 .4 7.162l1.47 10.5s-1.966 16.232-.3 20.241a22.057 22.057 0 0 1 1.771 6.973 10.843 10.843 0 0 0 2.7 1.045v.591l-.384 9.872v.543s-.047.26-.083.691v.242a.287.287 0 0 0 0 .071v.207a1.447 1.447 0 0 0 0 .159 1.192 1.192 0 0 1 0 .142v1.754a1.722 1.722 0 0 0 .047.3.312.312 0 0 0 0 .071 1.5 1.5 0 0 0 .065.325 1.258 1.258 0 0 0 .076.319.075.075 0 0 1 0 .035.586.586 0 0 0 .047.165.3.3 0 0 0 0 .077.957.957 0 0 0 .059.2v.047c.059.165.118.331.189.5a.2.2 0 0 0 0 .053c0 .059.053.124.083.183l.036.083.077.159.047.089.083.148.053.088c0 .047.053.094.083.142a1.062 1.062 0 0 1 .059.095l.089.136.065.089.094.136.071.089.106.13.071.083.124.142.065.071.2.195a.3.3 0 0 0 .065.059 1.617 1.617 0 0 0 .147.136l.094.077.13.106.112.083.13.094.124.083.13.083.136.077.136.083.142.071.147.071.148.071.147.065.159.065.159.059.165.059.177.053.277.083.23.059.183.035.189.041h.2l.195.03h2.492l.319-.03h.195l.537-.059s6.69 1 6.908-1.647a2.126 2.126 0 0 1 .029-.425v-.336a.876.876 0 0 1 0-.124v-3.36a116.029 116.029 0 0 0-.147-3.206 4.294 4.294 0 0 0-.035-.59s-2.279-3.437-1.907-4.724a34 34 0 0 0 .289-5.656s-.885-2.1-1.482-3.95c-.047-.142-.089-.283-.13-.419a21.8 21.8 0 0 0 1.393-1.771 22.44 22.44 0 0 0-1.665-13.462.838.838 0 0 1-.36-.691.286.286 0 0 1 0-.071l1.14-13.941-.691-8.113s-.49-5.544.59-7.93l2.155-21 3.059-12.217s.98-.478 1.771 1.819 2.74 12.695 2.74 12.695l4.724 17.188s.785 6.111 1.47 6.973.691 4.677.691 4.677 1.47 3.058 1.276 4.393a19.007 19.007 0 0 0 .484 6.206c.484 1.24.691 10.038.691 10.038a20.279 20.279 0 0 0 .195 8.691 30.606 30.606 0 0 1 .49 9.932 6.82 6.82 0 0 0 .4.555c-.047.13-.1.26-.147.378-.307.8-.549 1.358-.549 1.358a34.823 34.823 0 0 0 .3 5.657c.366 1.287-1.913 4.724-1.913 4.724s0 .213-.035.59c-.042.679-.106 1.889-.148 3.206v3.366a.746.746 0 0 0 0 .112v.343a2.175 2.175 0 0 0 .03.425c.224 2.645 6.914 1.647 6.914 1.647l.537.065h2.988l.2-.035.195-.03.189-.041.189-.035.23-.059.278-.083.171-.053.165-.059a1.285 1.285 0 0 0 .16-.059l.159-.065.153-.065.148-.065.147-.077.136-.071.142-.077.13-.083.136-.083.118-.083.13-.094a.755.755 0 0 0 .112-.083 1.038 1.038 0 0 0 .13-.1l.1-.083.148-.13.065-.065.2-.195.059-.071.13-.136.065-.089a1.156 1.156 0 0 0 .112-.13l.065-.089.1-.136.059-.089.095-.136a.78.78 0 0 1 .059-.095c0-.047.053-.094.083-.142l.053-.089c0-.053.053-.1.077-.148a.628.628 0 0 0 .047-.089c0-.053.053-.106.077-.16l.041-.083c0-.059.053-.118.083-.183v-.053c.065-.165.13-.331.183-.5v-.047a.635.635 0 0 1 .065-.195.466.466 0 0 1 0-.083.225.225 0 0 1 .047-.165v-.03a.079.079 0 0 0 0-.035 1.429 1.429 0 0 1 .083-.313 2.037 2.037 0 0 1 .065-.319v-.077a2.251 2.251 0 0 1 .047-.289.234.234 0 0 0 0-.1v-1.801a1.337 1.337 0 0 1 0-.159v-.207a.265.265 0 0 1 0-.071v-.236c-.036-.431-.077-.691-.077-.691v-.537l-.372-9.554v-.59c.549-.307 1.11-.655 1.694-1.063 0 0-.1-5.444 1.47-7.635s-.785-7.93-.785-7.93l-.98-20.53.39-9.447a9.392 9.392 0 0 1-1.181-4.582 16.663 16.663 0 0 0-1.571-5.9s-.98-3.247.2-4.2-1.275-21.847-1.275-21.847.59-15.263-.531-24.327v-.148l.313-.142c-.095-.726-.2-1.405-.307-2.037l-.331.1a16.581 16.581 0 0 0-.59-2.362l-1.57-7.21s-.036-.378-.077-.927a37.22 37.22 0 0 1-.124-2.3 3.89 3.89 0 0 1 .106-.968l-.083-.071a2.147 2.147 0 0 1 .083-.5l-.343-.289s-.047-.325-.083-.821a9.235 9.235 0 0 1 .425-4.092c.785-1.577 8.857-7.546 8.857-7.546l4.523-9.052s4.511-6.353 7.942-7.593 14.118-8.349 14.118-8.349 3.726-3.82 4.021-4.724l.124-.189h.071v-.124l10.038-15.039c4.015-3.248 4.163-10.168 4.163-10.168l1.045-15.812-.342-9.353.484-5.314s8.832-22.468.406-22.137zm-57.5 40.919a12.655 12.655 0 0 0-1.665 6.271v.573a12.609 12.609 0 0 0 1.34 5.655 4.635 4.635 0 0 0-.974 1.731c-.5-.626-1.949-2.539-2.031-3.808a3.964 3.964 0 0 0-1.57-2.574s-.272-2.893.094-3.389l.053-.047s.041-.071.124-.189a141.56 141.56 0 0 0 3.289-5.19 4.641 4.641 0 0 0 .75.248l.9.224z" class="cls-2" data-name="Path 9974" transform="translate(-319.558 -72.158)"/>
        <path id="Path_9975" d="M855.54 216.866c.088-.2.159-.413.23-.626a13.016 13.016 0 0 0-.591 1.447c.121-.278.249-.55.361-.821z" class="cls-3" data-name="Path 9975" transform="translate(-371.286 -108.796)"/>
        <path id="Path_9976" d="M807.532 239.839s-1.848 8.81-5.255 9.949 4.133 11.219 4.133 11.219l15.629-.856.283-3.265s-2.952-6.536 1.99-14.49-16.78-2.557-16.78-2.557z" class="cls-4" data-name="Path 9976" transform="translate(-349.218 -118.11)"/>
        <path id="Path_9977" d="M759.364 576.094c-.213 2.627-6.678 1.635-6.678 1.635-10.723 1.488-8.951-9.022-8.951-9.022v-.537l.372-9.8.106-2.734s11.809-5.4 11.508-4.263a6.721 6.721 0 0 0 .478 2.551c.59 1.836 1.435 3.915 1.435 3.915a35.293 35.293 0 0 1-.283 5.609c-.354 1.275 1.848 4.688 1.848 4.688s0 .213.035.591a68.769 68.769 0 0 1 .13 7.367z" class="cls-5" data-name="Path 9977" transform="translate(-325.455 -250.417)"/>
        <path id="Path_9978" d="M800.621 579.756s-6.466 1-6.678-1.636a67.048 67.048 0 0 1 .112-7.386 5.2 5.2 0 0 1 .029-.591s2.2-3.413 1.848-4.688a35.379 35.379 0 0 1-.283-5.615s.23-.549.531-1.34c.632-1.659 1.583-4.352 1.388-5.119-.283-1.14 11.508 4.257 11.508 4.257l.118 3.059.36 9.477v.537s1.796 10.539-8.933 9.045z" class="cls-5" data-name="Path 9978" transform="translate(-346.119 -251.265)"/>
        <path id="Path_9979" d="M836.838 139.708c-3.755 12.075-15.151 15.393-15.151 15.393s-7.628 5.657-8.715 7.428-10.463 9.376-12.931 10.374-4.352 2.651-3.691 4.871c.591 2.061-5.869 12.146-6.843 13.645l-.118.189-2.037 2.132-6.914 3.5-5.633-1.8-.715-6.767 2.988-5.314a14.659 14.659 0 0 0 4.234-4.623c1.943-3.224 3.271-5.444 3.271-5.444s2.132-5.066 5.491-8.054a49.686 49.686 0 0 1 7.481-5.314l13.882-8.266a22.381 22.381 0 0 1 5.314-2.952c2.19-.631 23.83-21.072 20.087-8.998z" class="cls-4" data-name="Path 9979" transform="translate(-338.069 -73.623)"/>
        <path id="Path_9980" d="M780.438 225.814l9.235-1.848a.592.592 0 0 0-.165.384l-.118.189-2.037 2.131-6.914 3.5-5.633-1.8-.714-6.767 2.988-5.314c-2.828 5.9-.071 10.1-.071 10.1z" class="cls-6" data-name="Path 9980" transform="translate(-337.979 -108.876)"/>
        <path id="Path_9981" d="M867.442 274.652a1.781 1.781 0 0 0-.065.189 2.584 2.584 0 0 1-.343.591l-3.726 1.818-5.686.59-2.952-7.15 1.966-7.835 1.086-1.464.3-.331c.112 1.417.685 8.81.65 11.03-.047 2.462 1.771 2.657 1.771 2.657z" class="cls-6" data-name="Path 9981" transform="translate(-371.1 -127.789)"/>
        <path id="Path_9982" d="M820.818 256.754a1.691 1.691 0 0 0-.065.189c-.283.9-3.879 4.688-3.879 4.688s-10.327 7.056-13.64 8.266-7.676 7.528-7.676 7.528l-4.357 8.993s-7.812 5.9-8.568 7.487a9.333 9.333 0 0 0-.407 4.062 4.207 4.207 0 0 0 .071.815l-2.3 2.4-1.836 1.913-2.586 2.693-4.21-.59-13.12-2.084-2.515-1.417-13.964-7.865s0-.49-.035-1.24c0-.331 0-.709-.035-1.128-.042-1.275-.1-2.864-.166-4.216-.141-2.793 1.99-7.575 1.99-7.575l3.927-9.666c-.378-1.842 1.8-6.725 1.8-6.725-.378-.708 1.9-7.764 2.462-8.426s1.517-5.639 1.517-5.639c1.181-1.7 2.888-10.368 2.888-10.368s1.943-10.988 2.362-13.734 5.2-8.9 5.35-9.087c-3.407 6.247-.425 10.794-.425 10.794l3.412-.59 9.241-1.8c-.426.283-.142 3.407-.142 3.407a3.938 3.938 0 0 1 1.511 2.557c.089 1.388 1.771 3.543 2.084 3.927l.047.053a4.624 4.624 0 0 1 2.226-3.177l2.132 2.846.714 3.407s-.195.478-1.423 1.423.52 3.407.52 3.407c.591 1 .761 4.688.761 4.688a6.906 6.906 0 0 1 4.021-1.37 12.179 12.179 0 0 0 2.415-3.46 1.429 1.429 0 0 1 2.037-.945 13.111 13.111 0 0 1 2.321-1.612c1.14-.59 2.463.59 2.463.59l.142 4.363s.112.177.3.419c.372.52 1.039 1.317 1.458 1.181a43.237 43.237 0 0 1 5.35.283s1.659.708 2.273-.189 4.133-3.265 4.133-3.265.679 8.792.679 11.248 1.771 2.657 1.771 2.657z" class="cls-7" data-name="Path 9982" transform="translate(-324.708 -109.201)"/>
        <path id="Path_9983" d="M875.914 284.818h-.124c.224-.59.124 0 .124 0z" class="cls-8" data-name="Path 9983" transform="translate(-379.757 -137.601)"/>
        <circle id="Ellipse_3140" cx=".85" cy=".85" r=".85" class="cls-9" data-name="Ellipse 3140" transform="translate(456.547 140.732)"/>
        <circle id="Ellipse_3141" cx=".85" cy=".85" r=".85" class="cls-9" data-name="Ellipse 3141" transform="translate(450.358 152.84)"/>
        <circle id="Ellipse_3142" cx=".85" cy=".85" r=".85" class="cls-9" data-name="Ellipse 3142" transform="translate(438.173 178.762)"/>
        <circle id="Ellipse_3143" cx=".85" cy=".85" r=".85" class="cls-9" data-name="Ellipse 3143" transform="translate(443.932 165.683)"/>
        <path id="Path_9984" d="M756.613 553.922c-4.44 5.279-9.235 5.19-12.093 4.446l.106-2.734s11.809-5.4 11.508-4.263a6.266 6.266 0 0 0 .479 2.551z" class="cls-6" data-name="Path 9984" transform="translate(-325.817 -250.154)"/>
        <path id="Path_9985" d="M810.8 560.736c-7.54 4.358-11.962-.75-12.99-2.2.632-1.659 1.582-4.352 1.387-5.119-.283-1.14 11.508 4.257 11.508 4.257z" class="cls-6" data-name="Path 9985" transform="translate(-347.726 -251.04)"/>
        <path id="Path_9986" d="M786.874 466.453c-1.512 2.179-1.423 7.576-1.423 7.576-9.754 7.009-14.868-1.517-14.868-1.517a31.365 31.365 0 0 0-.472-9.849 20.554 20.554 0 0 1-.189-8.621s-.189-8.715-.668-9.943a19.025 19.025 0 0 1-.472-6.159c.189-1.329-1.228-4.352-1.228-4.352s0-3.791-.667-4.641-1.417-6.92-1.417-6.92l-4.541-17.046s-1.9-10.321-2.651-12.594-1.707-1.8-1.707-1.8l-2.728 12.213-2.084 20.837c-1.045 2.362-.59 7.865-.59 7.865l.661 8.048-1.1 13.829a.3.3 0 0 0 0 .071.845.845 0 0 0 .343.685 22.756 22.756 0 0 1 1.588 13.356c-7.2 10.422-15.913 5.019-15.913 5.019a22.113 22.113 0 0 0-1.7-6.908c-1.612-3.98.283-20.076.283-20.076l-1.423-10.422a69.755 69.755 0 0 0-.378-7.086 62.376 62.376 0 0 1-.189-7.009l.189-6.536c-2.462-8.337-1.234-21.5-1.234-21.5s-.378-21.026.384-21.977c.549-.685.2-3.8.437-6.052a4.224 4.224 0 0 1 .555-1.943l.094-.094c1.234-1.518 1.234-7.576 1.134-9.949-.047-1.252.809-3.283 1.624-4.913a56.9 56.9 0 0 1 1.328-2.433l.083-.136s5.4 1.328 19.7 8.148a26.879 26.879 0 0 0 8.136 2.521 18.1 18.1 0 0 0 4.245.065 14.819 14.819 0 0 0 6.105-1.984 10.731 10.731 0 0 0 2.639-2.12 17.679 17.679 0 0 0 0 3.814c.036.549.077.921.077.921l1.577 7.026a18.468 18.468 0 0 1 .59 2.545c.112.626.207 1.3.3 2.025 1.1 8.987.514 24.132.514 24.132s2.362 20.743 1.234 21.688-.195 4.169-.195 4.169a16.8 16.8 0 0 1 1.517 5.869 9.451 9.451 0 0 0 1.14 4.546l-.384 9.377.992 20.341s2.269 5.715.752 7.894z" class="cls-10" data-name="Path 9986" transform="translate(-320.743 -164.677)"/>
        <path id="Path_9987" d="M806.13 490.38s7.174-4.133 8.739-2.273-8.739 2.273-8.739 2.273z" class="cls-6" data-name="Path 9987" transform="translate(-351.138 -223.27)"/>
        <path id="Path_9988" d="M813.285 496.14s-1.181.59 1.423 1.346-1.423-1.346-1.423-1.346z" class="cls-6" data-name="Path 9988" transform="translate(-353.958 -226.847)"/>
        <path id="Path_9989" d="M740 476.827c-.242.071 5.969 4.192 11.579.779-.028 0-10.184-1.206-11.579-.779z" class="cls-6" data-name="Path 9989" transform="translate(-323.953 -218.671)"/>
        <path id="Path_9990" d="M754.921 490.24a7.613 7.613 0 0 1-5.184 3.838c-3.484.496 5.184-3.838 5.184-3.838z" class="cls-6" data-name="Path 9990" transform="translate(-327.612 -224.386)"/>
        <path id="Path_9991" d="M797.71 502.52s8.172 12.99 6.607 16.055-6.607-16.055-6.607-16.055z" class="cls-6" data-name="Path 9991" transform="translate(-347.673 -229.717)"/>
        <path id="Path_9992" d="M773.78 369.09l-.85 25.431s5.042-.213 5.9-8.591 1.494-15.2 1.494-15.2z" class="cls-6" data-name="Path 9992" transform="translate(-337.488 -173.473)"/>
        <path id="Path_9993" d="M773.3 368.13l-.85 25.431s5.043-.213 5.9-8.6 1.506-15.2 1.506-15.2z" class="cls-10" data-name="Path 9993" transform="translate(-337.291 -173.067)"/>
        <path id="Path_9994" d="M747.495 369.515s-3.98 10.669-13.084 5.5a4.2 4.2 0 0 1 .555-1.943c2.492 1.045 8.266 2.574 10.628-4.346z" class="cls-6" data-name="Path 9994" transform="translate(-321.662 -173.163)"/>
        <path id="Path_9995" d="M747.015 367.589s-3.98 10.669-13.085 5.5a4.223 4.223 0 0 1 .555-1.943c2.492 1.051 8.266 2.574 10.628-4.34z" class="cls-6" data-name="Path 9995" transform="translate(-321.465 -172.353)"/>
        <path id="Path_9996" d="M747.015 368.549s-3.98 10.67-13.085 5.5a4.221 4.221 0 0 1 .555-1.943c2.492 1.051 8.266 2.574 10.628-4.34z" class="cls-10" data-name="Path 9996" transform="translate(-321.465 -172.758)"/>
        <path id="Path_9997" d="M805.609 380.85c-10 4.759-13.669-6.46-13.669-6.46l2.362.071c.413 7.174 8.319 5.243 11.03 4.364.094.649.189 1.304.277 2.025z" class="cls-6" data-name="Path 9997" transform="translate(-345.313 -175.55)"/>
        <path id="Path_9998" d="M806.569 379.406c-10 4.753-13.669-6.466-13.669-6.466l2.362.071c.413 7.174 8.319 5.249 11.03 4.369.094.626.188 1.305.277 2.026z" class="cls-6" data-name="Path 9998" transform="translate(-345.708 -174.939)"/>
        <path id="Path_9999" d="M806.089 379.886c-10 4.753-13.669-6.466-13.669-6.466l2.362.071c.413 7.18 8.32 5.249 11.03 4.369.094.626.188 1.305.277 2.026z" class="cls-10" data-name="Path 9999" transform="translate(-345.511 -175.141)"/>
        <path id="Path_10000" d="M747.015 368.549s-3.98 10.67-13.085 5.5a4.221 4.221 0 0 1 .555-1.943c2.492 1.051 8.266 2.574 10.628-4.34z" class="cls-11" data-name="Path 10000" transform="translate(-321.465 -172.758)"/>
        <path id="Path_10001" d="M806.089 379.886c-10 4.753-13.669-6.466-13.669-6.466l2.362.071c.413 7.18 8.32 5.249 11.03 4.369.094.626.188 1.305.277 2.026z" class="cls-11" data-name="Path 10001" transform="translate(-345.511 -175.141)"/>
        <path id="Path_10002" d="M759.437 585.743a16.743 16.743 0 0 1-.071 1.966c-.212 2.628-6.678 1.636-6.678 1.636-5.9.821-8.03-2.014-8.733-4.724a10.817 10.817 0 0 1-.325-2.693 11.21 11.21 0 0 1 .107-1.618v-.537a3.95 3.95 0 0 1 3.672.75c2.628 2.132 6.111.5 6.111.5s2.557.213 3.543 1.063c.555.478 1.47-.673 2.167-1.771.042.708.106 1.99.148 3.36.047.698.059 1.407.059 2.068z" class="cls-6" data-name="Path 10002" transform="translate(-325.457 -262.165)"/>
        <path id="Path_10003" d="M749.068 587.217s-1.771 1.736-5.113-.945a10.8 10.8 0 0 1-.325-2.692c1.706 1.299 4.87 3.637 5.438 3.637z" class="cls-6" data-name="Path 10003" transform="translate(-325.44 -263.763)"/>
        <path id="Path_10004" d="M769.069 588.558a1.334 1.334 0 0 1-1.919-.307 12.624 12.624 0 0 0 1.89-1.771c.017.708.029 1.42.029 2.078z" class="cls-6" data-name="Path 10004" transform="translate(-335.103 -264.96)"/>
        <path id="Path_10005" d="M793.869 587.806a18.238 18.238 0 0 0 .065 1.966c.213 2.633 6.678 1.636 6.678 1.636 5.9.826 8.03-2.008 8.733-4.724a11.334 11.334 0 0 0 .219-4.31v-.537a4 4 0 0 0-3.678.75c-2.628 2.132-6.105.5-6.105.5s-2.556.218-3.543 1.069c-.555.478-1.47-.673-2.161-1.771-.041.709-.112 1.99-.154 3.36-.048.685-.06 1.393-.054 2.061z" class="cls-6" data-name="Path 10005" transform="translate(-346.11 -263.038)"/>
        <path id="Path_10006" d="M811.43 589.261s1.771 1.736 5.108-.945a10.782 10.782 0 0 0 .331-2.687c-1.713 1.294-4.878 3.632-5.439 3.632z" class="cls-6" data-name="Path 10006" transform="translate(-353.311 -264.627)"/>
        <path id="Path_10007" d="M793.869 590.618a1.329 1.329 0 0 0 1.913-.307 12.486 12.486 0 0 1-1.89-1.771 63.69 63.69 0 0 0-.023 2.078z" class="cls-6" data-name="Path 10007" transform="translate(-346.085 -265.829)"/>
        <path id="Path_10008" d="M776.235 285s-9.093 25.1-5.591 27.279S776.235 285 776.235 285z" class="cls-6" data-name="Path 10008" transform="translate(-336.216 -137.968)"/>
        <path id="Path_10009" d="M791.14 271.88s-1.712 8.337-.856 9.093.856-9.093.856-9.093z" class="cls-6" data-name="Path 10009" transform="translate(-344.512 -132.309)"/>
        <path id="Path_10010" d="M815.746 304.77s-11.177 10.416-10.422 11.272 10.422-11.272 10.422-11.272z" class="cls-6" data-name="Path 10010" transform="translate(-350.795 -146.202)"/>
        <path id="Path_10011" d="M827.592 262.115c-4.233 1.293-14.13 4.316-14.242 4.293l.549-2.256a6.905 6.905 0 0 1 4.021-1.37 12.181 12.181 0 0 0 2.415-3.46 1.429 1.429 0 0 1 2.037-.945 13.441 13.441 0 0 1 2.321-1.612c1.14-.59 2.462.59 2.462.59l.142 4.358s.112.16.295.402z" class="cls-6" data-name="Path 10011" transform="translate(-354.116 -125.866)"/>
        <path id="Path_10012" d="M827.592 261.175c-4.233 1.293-14.13 4.316-14.242 4.287l.549-2.25a6.905 6.905 0 0 1 4.021-1.37 12.18 12.18 0 0 0 2.415-3.46 1.429 1.429 0 0 1 2.037-.945 13.108 13.108 0 0 1 2.321-1.612c1.14-.59 2.462.59 2.462.59l.142 4.364s.112.142.295.396z" class="cls-7" data-name="Path 10012" transform="translate(-354.116 -125.469)"/>
        <path id="Path_10013" d="M809.582 253.3c.59 1 .755 4.688.755 4.688l-1.647 1.312-3.13-9.022-.141-4.688-.059-.266.047.053a4.6 4.6 0 0 1 2.226-3.171l2.132 2.84.714 3.407s-.195.478-1.423 1.423.526 3.424.526 3.424z" class="cls-6" data-name="Path 10013" transform="translate(-350.815 -119.834)"/>
        <path id="Path_10014" d="M810.071 252.8c.591 1 .762 4.688.762 4.688l-1.647 1.329-3.129-9.022-.142-4.688-.065-.266.047.053a4.623 4.623 0 0 1 2.226-3.177l2.132 2.846.714 3.407s-.195.478-1.423 1.423.525 3.407.525 3.407z" class="cls-7" data-name="Path 10014" transform="translate(-351.016 -119.627)"/>
        <path id="Path_10015" d="M830.627 225.479a12.677 12.677 0 1 1-3.711-9.075 12.783 12.783 0 0 1 3.711 9.075z" class="cls-6" data-name="Path 10015" transform="translate(-350.729 -107.413)"/>
        <path id="Path_10016" d="M830.619 224.513a12.712 12.712 0 1 1-3.724-9.061 12.789 12.789 0 0 1 3.724 9.061z" class="cls-4" data-name="Path 10016" transform="translate(-350.721 -107.007)"/>
        <path id="Path_10017" d="M831.741 224.5a12.715 12.715 0 0 1-1.86 6.643c-.189-.337-.3-.726-.49-1.069-.265-.478-.879-.88-1.334-.59a1.365 1.365 0 0 0-.419.59c-.372.785-1.033 1.571-1.9 1.553a1.884 1.884 0 0 1-1.618-1.382 5.68 5.68 0 0 1-.094-2.256c.13-1.535.153-3.307-.986-4.34a6.461 6.461 0 0 0-2.468-1.1 3.237 3.237 0 0 1-2.126-1.571c-.236-.59-.177-1.216-.39-1.771a3.1 3.1 0 0 0-2.3-1.689 6.023 6.023 0 0 1-4.021 1.376 15.072 15.072 0 0 1-3.956-.626 12.789 12.789 0 0 1 23.961 6.217z" class="cls-6" data-name="Path 10017" transform="translate(-351.845 -106.968)"/>
        <path id="Path_10018" d="M816.618 214.25c.212.591.153 1.228.389 1.771a3.223 3.223 0 0 0 2.126 1.571 6.5 6.5 0 0 1 2.468 1.1c1.139 1.039 1.116 2.811.986 4.346a5.672 5.672 0 0 0 .095 2.256 1.9 1.9 0 0 0 1.618 1.382 2.349 2.349 0 0 0 1.9-1.553 1.377 1.377 0 0 1 .419-.59c.455-.3 1.069.1 1.334.59a5.857 5.857 0 0 0 .761 1.435 1.7 1.7 0 0 0 1.553.354 3.916 3.916 0 0 0 1.458-.756 7.993 7.993 0 0 0 2.716-3.265 4.688 4.688 0 0 0-.172-4.133 12.4 12.4 0 0 1-1.423-2.161c-.484-1.411.425-2.864.986-4.245a7.37 7.37 0 0 0 .5-4.009 5.148 5.148 0 0 0-2.108-3.383c-2.244-1.494-5.278-.673-7.877-1.393a19.979 19.979 0 0 1-2.71-1.116 20.073 20.073 0 0 0-4.133-1.323c-1.411-.283-3.118-.319-4.009.809a8.983 8.983 0 0 0-.65 1.134 4.08 4.08 0 0 1-2.551 1.878c-.762.183-1.559.136-2.362.248a2.6 2.6 0 0 0-1.966 1.128 3.911 3.911 0 0 0-.13 2.362 2.4 2.4 0 0 1-.59 2.226c-.3.23-.714.342-.9.667a.939.939 0 0 0 .277 1.116 2.664 2.664 0 0 0 1.128.5 17.261 17.261 0 0 0 4.529.773 5.975 5.975 0 0 0 4.216-1.553c-.1.1-.75.059-.868.053 1.154.116 2.559.624 2.99 1.781z" class="cls-12" data-name="Path 10018" transform="translate(-350.416 -102.459)"/>
        <g id="Group_10430" class="cls-13" data-name="Group 10430" transform="translate(454.03 103.341)">
            <path id="Path_10019" d="M832.574 231.7a4.021 4.021 0 0 1-1.459.762 1.712 1.712 0 0 1-1.547-.36 5.758 5.758 0 0 1-.767-1.435c-.266-.478-.88-.88-1.335-.59a1.443 1.443 0 0 0-.419.59 2.312 2.312 0 0 1-1.9 1.553 1.871 1.871 0 0 1-1.612-1.382 5.671 5.671 0 0 1-.1-2.256c.136-1.535.153-3.3-.98-4.34a6.494 6.494 0 0 0-2.474-1.1 3.251 3.251 0 0 1-2.125-1.571c-.236-.59-.177-1.216-.39-1.771a3.088 3.088 0 0 0-2.3-1.689 6.129 6.129 0 0 1-4.021 1.382 17.507 17.507 0 0 1-4.529-.779 2.737 2.737 0 0 1-1.128-.49 1.246 1.246 0 0 1-.183-.213 1.654 1.654 0 0 0-.661.514.938.938 0 0 0 .277 1.116 2.659 2.659 0 0 0 1.128.5 17.257 17.257 0 0 0 4.529.773 6.076 6.076 0 0 0 4.015-1.376 3.09 3.09 0 0 1 2.3 1.683c.213.59.154 1.228.39 1.771a3.237 3.237 0 0 0 2.126 1.571 6.491 6.491 0 0 1 2.468 1.1c1.14 1.039 1.116 2.811.986 4.346a5.67 5.67 0 0 0 .094 2.256 1.9 1.9 0 0 0 1.618 1.382 2.349 2.349 0 0 0 1.9-1.553 1.379 1.379 0 0 1 .419-.59c.455-.3 1.069.1 1.334.59a5.684 5.684 0 0 0 .768 1.435 1.688 1.688 0 0 0 1.547.354 3.915 3.915 0 0 0 1.459-.756 7.993 7.993 0 0 0 2.716-3.265 5.246 5.246 0 0 0 .254-.779 8.426 8.426 0 0 1-2.398 2.617z" data-name="Path 10019" transform="translate(-804.565 -212.867)"/>
            <path id="Path_10020" d="M854 220.585c.124-.272.242-.543.354-.809a5.4 5.4 0 0 0 .219-.626 13.879 13.879 0 0 0-.573 1.435z" data-name="Path 10020" transform="translate(-824.811 -213.334)"/>
            <path id="Path_10021" d="M807.139 212.837a2.423 2.423 0 0 0 .537-2.173 9.628 9.628 0 0 1-.112-1.364 2.007 2.007 0 0 0-.325.413 3.913 3.913 0 0 0-.13 2.362 4.59 4.59 0 0 1 .03.762z" data-name="Path 10021" transform="translate(-805.559 -209.3)"/>
        </g>
        <path id="Path_10022" d="M781.857 356.231a134.063 134.063 0 0 1-8.762.295c-1.346 0-2.769 0-4.245-.065a91.037 91.037 0 0 1-13.917-1.435c-6.135-1.181-11.809-3.218-15.352-6.666.59-1.146 1.128-2.1 1.329-2.433 0-.331 0-.714-.036-1.128 6.229 2.952 25.649 11.154 40.535 6.5a4.228 4.228 0 0 0 .071.815l.337.283a17.912 17.912 0 0 0 .04 3.834z" class="cls-6" data-name="Path 10022" transform="translate(-323.839 -163.099)"/>
        <path id="Path_10023" d="M781.857 355.267c-1.1.077-2.639.159-4.493.218-1.287.047-2.728.071-4.269.071-1.346 0-2.769 0-4.245-.065a91 91 0 0 1-13.917-1.429c-6.135-1.181-11.809-3.224-15.352-6.672a55.41 55.41 0 0 1 1.329-2.433c0-.331 0-.708-.036-1.128 6.229 2.952 25.649 11.16 40.535 6.524a4.229 4.229 0 0 0 .071.815l.337.284a17.687 17.687 0 0 0 .04 3.815z" class="cls-9" data-name="Path 10023" transform="translate(-323.839 -162.689)"/>
        <path id="Path_10024" d="M310.77 618.808a8.119 8.119 0 0 1-1.813-6.182L335.02 399.37l2.161-17.714a8.178 8.178 0 0 1 8.054-7.18l76.34-.508a8.166 8.166 0 0 0 8.113-8.39l-.029-.809a8.172 8.172 0 0 1 8.166-8.45h80.22a8.166 8.166 0 0 1 8.166 8.149 8.718 8.718 0 0 1-.071 1.1 8.166 8.166 0 0 0 7.889 9.246l77.043 1.966a8.16 8.16 0 0 1 7.841 9.542L580.4 611.286l-.726 4.251a7.985 7.985 0 0 1-1.181 3.047z" class="cls-14" data-name="Path 10024" transform="translate(-147.09 -174.116)"/>
        <g id="Group_10431" class="cls-15" data-name="Group 10431" transform="translate(307.107 141.154)">
            <path id="Rectangle_1400" d="M0 0h155.19v47.449H0z" class="cls-16" data-name="Rectangle 1400" transform="rotate(-55.39 121.629 63.844)"/>
        </g>
        <path id="Rectangle_1401" d="M0 0h45.111v153.112H0z" class="cls-17" data-name="Rectangle 1401" transform="rotate(34.61 -31.252 706.881)"/>
        <path id="Rectangle_1402" d="M0 0h31.848v31.848H0z" class="cls-18" data-name="Rectangle 1402" transform="rotate(34.81 -39.536 710.43)"/>
        <path id="Rectangle_1403" d="M0 0h31.891v31.891H0z" class="cls-19" data-name="Rectangle 1403" transform="rotate(34.61 -100.622 697.113)"/>
        <path id="Rectangle_1404" d="M0 0h31.891v31.891H0z" class="cls-20" data-name="Rectangle 1404" transform="rotate(34.61 -161.22 677.563)"/>
        <g id="Group_10432" class="cls-15" data-name="Group 10432" transform="translate(299.054 133.695)">
            <path id="Rectangle_1405" d="M0 0h154.611v47.449H0z" class="cls-21" data-name="Rectangle 1405" transform="rotate(-73.7 98.936 74.202)"/>
        </g>
        <path id="Rectangle_1406" d="M0 0h45.111v152.533H0z" class="cls-17" data-name="Rectangle 1406" transform="rotate(16.3 -301.11 1270.251)"/>
        <path id="Rectangle_1407" d="M0 0h31.891v31.891H0z" class="cls-22" data-name="Rectangle 1407" transform="rotate(16.3 -316.633 1292.619)"/>
        <path id="Rectangle_1408" d="M0 0h31.891v31.891H0z" class="cls-23" data-name="Rectangle 1408" transform="rotate(16.3 -448.463 1272.984)"/>
        <path id="Rectangle_1409" d="M0 0h31.891v31.891H0z" class="cls-24" data-name="Rectangle 1409" transform="rotate(16.3 -580.267 1253.352)"/>
        <g id="Group_10433" class="cls-15" data-name="Group 10433" transform="translate(299.179 136.242)">
            <path id="Rectangle_1410" d="M0 0h154.611v47.449H0z" class="cls-25" data-name="Rectangle 1410" transform="rotate(-85.41 83.488 77.04)"/>
        </g>
        <path id="Rectangle_1411" d="M0 0h45.111v152.533H0z" class="cls-17" data-name="Rectangle 1411" transform="rotate(4.44 -1568.613 3971.31)"/>
        <path id="Rectangle_1412" d="M0 0h31.891v31.891H0z" class="cls-26" data-name="Rectangle 1412" transform="rotate(4.44 -1616.116 4052.917)"/>
        <path id="Rectangle_1413" d="M0 0h31.891v31.891H0z" class="cls-27" data-name="Rectangle 1413" transform="rotate(4.44 -2085.888 4031.996)"/>
        <path id="Rectangle_1414" d="M0 0h31.891v31.891H0z" class="cls-28" data-name="Rectangle 1414" transform="rotate(4.44 -2555.794 4011.155)"/>
        <g id="Group_10434" class="cls-15" data-name="Group 10434" transform="translate(291.196 140.285)">
            <path id="Rectangle_1415" d="M0 0h47.449v154.611H0z" class="cls-29" data-name="Rectangle 1415" transform="rotate(-2.61 47.43 1.08)"/>
        </g>
        <path id="Rectangle_1416" d="M0 0h45.111v152.533H0z" class="cls-30" data-name="Rectangle 1416" transform="rotate(-2.61 3294.027 -6354.805)"/>
        <path id="Rectangle_1417" d="M0 0h31.891v31.891H0z" class="cls-31" data-name="Rectangle 1417" transform="rotate(-2.61 3368.459 -6500.768)"/>
        <path id="Rectangle_1418" d="M0 0h31.93v31.93H0z" class="cls-32" data-name="Rectangle 1418" transform="rotate(-2.862 3815.404 -5963.423)"/>
        <path id="Rectangle_1419" d="M0 0h31.891v31.891H0z" class="cls-33" data-name="Rectangle 1419" transform="rotate(-2.61 5021.181 -6539.89)"/>
        <path id="Path_10025" d="M418.75 501.906l-40.08 15.505-58.58 22.645c-2.214-4.133-5.473-9.719-9.506-16.385-13.876-22.992-36.833-58.756-57.275-90.187-23.028-35.427-42.849-65.322-42.849-65.322l14.348-4.133L342.014 330z" class="cls-34" data-name="Path 10025" transform="translate(-106.387 -159.45)"/>
        <path id="Path_10026" d="M428.706 501.906l-40.08 15.505a301.249 301.249 0 0 1-68.1 6.259c-13.876-22.992-36.833-58.756-57.275-90.187L234.77 364l117.2-34z" class="cls-35" data-name="Path 10026" transform="translate(-116.383 -159.107)"/>
        <path id="Path_10027" d="M454.654 480.389s-62.264 36.833-155.226 28.5L225.32 328.211l35.516-6.105 122.78-21.085 69.674 175.855z" class="cls-31" data-name="Path 10027" transform="translate(-112.526 -146.949)"/>
        <path id="Path_10028" d="M477.9 476.916a294.3 294.3 0 0 1-48.689-1.388c-18.47-2.173-37.045-6.649-52.97-14.856-13.315-6.855-24.7-14.313-34.624-23.258-25.821-23.223-41.8-56.442-56.147-115.269l122.78-21.085z" class="cls-35" data-name="Path 10028" transform="translate(-137.254 -146.38)"/>
        <path id="Path_10029" d="M517.8 430.319s-45.9 8.987-92.613 3.454c-18.469-2.173-37.045-6.649-52.97-14.856-13.315-6.855-24.693-14.313-34.624-23.258-31.956-28.749-48.831-72.809-66.232-161.786 0 0 76.3 18.416 151.748-21.924-.025.031 25.406 158.734 94.691 218.37z" class="cls-17" data-name="Path 10029" transform="translate(-131.51 -108.799)"/>
        <path id="Path_10030" d="M471.125 549.346c-18.47-2.173-37.045-6.649-52.97-14.856-13.315-6.855-24.693-14.313-34.624-23.258 27.208-2.208 31.117-17.082 31.117-17.082 20.169 32.009 56.477 55.196 56.477 55.196z" class="cls-35" data-name="Path 10030" transform="translate(-177.488 -226.698)"/>
        <path id="Path_10031" d="M338.2 292.691s62.045-3.507 79.369-16.881l2.628 8.444s-41 18.086-82 18.3z" class="cls-33" data-name="Path 10031" transform="translate(-158.839 -134.082)"/>
        <path id="Path_10032" d="M338.2 357.513s60.073-3.289 105.462-25.213l1.535 3.507s-36.018 21.026-107 26.529z" class="cls-33" data-name="Path 10032" transform="translate(-158.862 -157.972)"/>
        <path id="Path_10033" d="M346.39 385.023s60.073-3.289 105.456-25.213l1.535 3.507s-36.018 21.02-106.991 26.529z" class="cls-33" data-name="Path 10033" transform="translate(-162.231 -169.595)"/>
        <path id="Path_10034" d="M354.57 412.573s60.073-3.289 105.462-25.213l1.529 3.507S425.543 411.893 354.57 417.4z" class="cls-33" data-name="Path 10034" transform="translate(-165.596 -181.235)"/>
        <path id="Path_10035" d="M362.76 440.123s60.073-3.289 105.456-25.213l1.535 3.507s-36.018 21.026-106.991 26.529z" class="cls-33" data-name="Path 10035" transform="translate(-168.965 -192.875)"/>
        <path id="Path_10036" d="M370.94 467.683s60.073-3.289 105.462-25.213l1.529 3.507S441.913 467 370.94 472.507z" class="cls-33" data-name="Path 10036" transform="translate(-172.33 -204.519)"/>
        <path id="Path_10037" d="M1070.867 827.218s-24.964-1.506-22.024 15.99a4.254 4.254 0 0 0 2.22 4.493s.041-1.3 2.557-.856a11.471 11.471 0 0 0 2.716.13 5.61 5.61 0 0 0 3.313-1.37s7.02-2.9 9.748-14.366c0 0 2.02-2.5 1.937-3.147l-4.21 1.771s1.44 3.041.307 5.562c0 0-.136-5.45-.945-5.314-.166 0-2.191 1.051-2.191 1.051s2.474 5.314.59 9.141c0 0 .708-6.525-1.382-8.757l-2.952 1.73s2.893 5.468.933 9.932c0 0 .5-6.844-1.559-9.512l-2.686 2.1s2.722 5.391 1.063 9.093c0 0-.218-7.971-1.648-8.573 0 0-2.362 2.072-2.7 2.952 0 0 1.86 3.909.7 5.975 0 0-.708-5.314-1.287-5.314 0 0-2.362 3.543-2.586 5.9a12.772 12.772 0 0 1 2.019-6.265 7.088 7.088 0 0 0-3.59 1.86s.366-2.492 4.169-2.7c0 0 1.937-2.669 2.45-2.834 0 0-3.779-.313-6.07.7 0 0 2.019-2.362 6.767-1.281l2.651-2.161s-4.978-.685-7.086.071c0 0 2.427-2.078 7.8-.59l2.887-1.724a26.283 26.283 0 0 0-6.767-.59s2.663-1.441 7.617.118l2.06-.927s-3.106-.59-4.015-.708-.963-.343-.963-.343a10.712 10.712 0 0 1 5.839.65s4.389-1.61 4.318-1.887z" class="cls-36" data-name="Path 10037" transform="translate(-450.973 -366.955)"/>
        <ellipse id="Ellipse_3144" cx="17.667" cy="2.988" class="cls-37" data-name="Ellipse 3144" rx="17.667" ry="2.988" transform="translate(585.034 479.281)"/>
        <ellipse id="Ellipse_3145" cx="60.227" cy="5.456" class="cls-37" data-name="Ellipse 3145" rx="60.227" ry="5.456" transform="translate(418.939 465.659)"/>
        <path id="Path_10038" d="M1097.3 729.417s-14.071-.85-12.4 9.016a2.4 2.4 0 0 0 1.246 2.533s.03-.732 1.447-.484a6.549 6.549 0 0 0 1.529.071 3.152 3.152 0 0 0 1.866-.768s3.956-1.636 5.5-8.1c0 0 1.14-1.411 1.093-1.771l-2.362 1.01a4.281 4.281 0 0 1 .171 3.141s-.077-3.076-.531-3.005c-.094 0-1.234.59-1.234.59s1.394 2.952.343 5.155c0 0 .4-3.678-.78-4.942l-1.671.98s1.629 3.082.526 5.6c0 0 .283-3.861-.88-5.361l-1.511 1.181s1.53 3.041.59 5.125c0 0-.124-4.494-.927-4.83a9.436 9.436 0 0 0-1.529 1.647s1.051 2.208.4 3.371c0 0-.4-2.994-.726-3.005a9.87 9.87 0 0 0-1.46 3.329 7.231 7.231 0 0 1 1.14-3.543 3.954 3.954 0 0 0-2.025 1.051s.206-1.405 2.362-1.523a9.413 9.413 0 0 1 1.382-1.6 8.7 8.7 0 0 0-3.425.4s1.14-1.323 3.814-.72l1.5-1.222a12.354 12.354 0 0 0-4 .041s1.37-1.181 4.4-.318l1.63-.974a14.714 14.714 0 0 0-3.82-.325s1.506-.815 4.292.065l1.181-.52s-1.771-.348-2.267-.4-.543-.195-.543-.195a6.09 6.09 0 0 1 3.294.366 14.268 14.268 0 0 0 2.385-1.066z" class="cls-36" data-name="Path 10038" transform="translate(-465.784 -326.907)"/>
        <ellipse id="Ellipse_3146" cx="9.961" cy="1.683" class="cls-37" data-name="Ellipse 3146" rx="9.961" ry="1.683" transform="translate(611.876 413.233)"/>
        <path id="Path_10039" d="M954.811 743.915s-16.993-1.028-14.986 10.882a2.9 2.9 0 0 0 1.506 3.059s0-.886 1.771-.591a7.765 7.765 0 0 0 1.848.089 3.814 3.814 0 0 0 2.255-.933s4.777-1.972 6.637-9.778c0 0 1.376-1.7 1.317-2.144l-2.9 1.228a5.125 5.125 0 0 1 .207 3.785s-.095-3.708-.644-3.625c-.112 0-1.488.72-1.488.72s1.683 3.6.413 6.224c0 0 .484-4.441-.939-5.964l-2.019 1.181s1.966 3.726.632 6.761c0 0 .342-4.659-1.057-6.495l-1.83 1.429s1.854 3.667.72 6.188c0 0-.142-5.427-1.116-5.834a11.113 11.113 0 0 0-1.842 1.99s1.263 2.663.478 4.068c0 0-.484-3.614-.88-3.631a12.354 12.354 0 0 0-1.771 4.033 8.717 8.717 0 0 1 1.376-4.263 4.781 4.781 0 0 0-2.439 1.269s.248-1.695 2.834-1.842a10.886 10.886 0 0 1 1.671-1.925 10.467 10.467 0 0 0-4.133.472s1.37-1.594 4.6-.868l1.807-1.476s-3.383-.461-4.824.047c0 0 1.653-1.411 5.315-.378l1.966-1.181a17.861 17.861 0 0 0-4.612-.4s1.819-.98 5.184.082l1.405-.632s-2.114-.413-2.734-.478-.649-.236-.649-.236a7.3 7.3 0 0 1 3.974.437 18.185 18.185 0 0 0 2.947-1.27z" class="cls-36" data-name="Path 10039" transform="translate(-406.045 -332.843)"/>
        <ellipse id="Ellipse_3147" cx="12.028" cy="2.031" class="cls-37" data-name="Ellipse 3147" rx="12.028" ry="2.031" transform="translate(525.041 424.02)"/>
        <ellipse id="Ellipse_3148" cx="17.667" cy="2.988" class="cls-37" data-name="Ellipse 3148" rx="17.667" ry="2.988" transform="translate(14.602 470.377)"/>
        <path id="Path_10040" d="M68.1 822.153s10.073-.307 13.114-2.469 15.5-4.723 16.255-1.281 15.145 17.253 3.767 17.347-26.435-1.771-29.47-3.619-3.666-9.978-3.666-9.978z" class="cls-38" data-name="Path 10040" transform="translate(-47.694 -362.669)"/>
        <path id="Path_10041" d="M101.429 838.3c-11.378.094-26.435-1.771-29.47-3.619-2.3-1.406-3.224-6.454-3.543-8.78h-.336s.638 8.13 3.667 9.979 18.133 3.72 29.482 3.661c3.283-.03 4.417-1.181 4.358-2.952-.462 1.037-1.713 1.693-4.158 1.711z" class="cls-39" data-name="Path 10041" transform="translate(-47.686 -366.429)"/>
        <path id="Rectangle_1420" d="M0 0h100.773v180.338H0z" class="cls-40" data-name="Rectangle 1420" transform="rotate(-72 298.258 -271.787)"/>
        <path id="Rectangle_1421" d="M0 0h99.386v177.846H0z" class="cls-41" data-name="Rectangle 1421" transform="rotate(-72 298.77 -272.886)"/>
        <g id="Group_10435" class="cls-42" data-name="Group 10435" transform="translate(496.741 34.844)">
            <circle id="Ellipse_3149" cx="18.517" cy="18.517" r="18.517" class="cls-31" data-name="Ellipse 3149"/>
        </g>
        <g id="Group_10436" class="cls-42" data-name="Group 10436" transform="translate(559.194 45.205)">
            <path id="Rectangle_1422" d="M0 0h5.072v80.674H0z" class="cls-31" data-name="Rectangle 1422" transform="rotate(-72 3.32 2.412)"/>
        </g>
        <g id="Group_10437" class="cls-42" data-name="Group 10437" transform="translate(555.195 57.503)">
            <path id="Rectangle_1423" d="M0 0h5.072v41.096H0z" class="cls-31" data-name="Rectangle 1423" transform="rotate(-72 3.32 2.412)"/>
        </g>
        <g id="Group_10438" class="cls-42" data-name="Group 10438" transform="translate(551.19 69.808)">
            <path id="Rectangle_1424" d="M0 0h5.072v66.468H0z" class="cls-31" data-name="Rectangle 1424" transform="rotate(-72 3.32 2.412)"/>
        </g>
        <g id="Group_10439" class="cls-42" data-name="Group 10439" transform="translate(547.193 80.307)">
            <path id="Rectangle_1425" d="M0 0h5.072v80.674H0z" class="cls-31" data-name="Rectangle 1425" transform="rotate(-72 3.32 2.412)"/>
        </g>
        <g id="Group_10440" class="cls-15" data-name="Group 10440" transform="translate(595.446 115.397)">
            <path id="Rectangle_1426" d="M0 0h9.808v22.325H0z" class="cls-31" data-name="Rectangle 1426" transform="rotate(-72 6.419 4.664)"/>
        </g>
        <path id="Path_10042" d="M883.576 478.161a5.435 5.435 0 0 0-.059-.59 3.023 3.023 0 0 0-.1-.591c-.077-.4-.16-.8-.254-1.181-.048-.183-.095-.372-.148-.549a14.976 14.976 0 0 0-2.952-5.71c-.077-.094-.16-.183-.236-.272s-.319-.342-.478-.5-.307-.3-.461-.437-.3-.26-.437-.378c-.283-.23-.549-.425-.779-.59a4.822 4.822 0 0 0-.478-.307 2.62 2.62 0 0 0-1.11-.36l-2.451-.242-3.348-.331-11.968-4.647-.473.165a27.142 27.142 0 0 1-.886-2.952 2.644 2.644 0 0 0 .942-.689 2.153 2.153 0 0 0 .65-.833c.3-.7-.278-2.179-.16-3.029a14.3 14.3 0 0 1 1.476-3.915 18.167 18.167 0 0 0 1.978-8.438 9.518 9.518 0 0 0-3.933-7.487c-1.27-.844-2.763-1.293-4.086-2.061-1.028-.59-1.931-1.382-2.911-2.055A16.734 16.734 0 0 0 834.432 429c-2.486 1.222-4.605 3.053-6.949 4.523s-5.108 2.6-7.853 2.161a1.9 1.9 0 0 0-.083.343l-.231-.03c-.472 1.287.685 2.563 1.771 3.443 2.025 1.671 4.322 3.336 6.961 3.4a7.317 7.317 0 0 1 3.029.224 2.778 2.778 0 0 1 .59.354 13.155 13.155 0 0 0 4.134 13.114l-6.111-2.2s-.254.13-.65.378l-8.479-5.645s-17-6.164-21.723 3.436 20.471 4.647 20.471 4.647l5.391 2.952a4.908 4.908 0 0 0 .591 3.236l14.7 9.081a77.656 77.656 0 0 1-8.715 2.362c-1.258 0-4.724 1.24-6.926 6.194s-10.079 29.122-17.005 33.149-25.192 30.978-25.192 30.978l.083.213a16.85 16.85 0 0 0-.957.283 19.355 19.355 0 0 0-9.489 7.156 3.035 3.035 0 0 0 2.126 4.789c7.209.915 11.147-2.409 13.043-4.919.124-.159.236-.319.343-.478a2.52 2.52 0 0 0 1.771.083l8.816-7.127s-6.9 6.79-2.852 12.99l-.307.431a98.546 98.546 0 0 0-14.761 32.133s-3.779 2.787-4.092 13.941-4.1 29.121-4.1 29.121-2.516 21.381-.945 27.881c0 0 .183.26.52.656-.118.142-.248.3-.39.449-1.376 1.488-3.855 3.543-6.743 2.952-4.4-.933-4.4 6.814 1.89 7.434 4.056.4 12.027 2.208 17.194 3.448a3.62 3.62 0 0 0 4.487-3.862 32.7 32.7 0 0 0-1.89-8.526c-.065-.148-.13-.3-.195-.431.183-.177.372-.354.555-.543 0 0 0-13.633 2.208-17.348 0 0 5.982-28.194 5.663-35.321-.242-5.574 15.524-27.285 22.384-36.455l-.059-.348c1.771-2.362 2.87-3.779 2.87-3.779l5.308 33.774s2.521 7.434 5.669 11.461c0 0 13.539 25.715 15.116 33.768a25.4 25.4 0 0 0 4.771 11.112l-.407.39c-1.435 1.317-3.543 2.634-5.94 2.132-4.405-.933-4.405 6.814 1.889 7.434 4.057.4 12.028 2.214 17.188 3.454a3.626 3.626 0 0 0 4.494-3.868c-.361-3.224-1.063-7.233-2.421-9.6a6.651 6.651 0 0 0-.36-.59 3.318 3.318 0 0 0 1.252-.88s-8.19-19.521-8.19-24.8c0 0-3.46-20.135-15.11-27.568 0 0 1.1-25.189 4.417-39.207.083-.342.165-.685.248-1.015a93.527 93.527 0 0 0 9.187-1.913l.313-9.294 1.576 7.434 17.631-10.841s-.154-1.954-.449-4.948c-.154-1.5-.337-3.259-.555-5.167a394.684 394.684 0 0 0-.591-4.795c-.059-.413-.112-.832-.171-1.246-.23-1.671-.484-3.36-.756-5.013q-.159-.933-.319-1.842c-.148-.809-.3-1.6-.449-2.362-.077-.384-.16-.767-.237-1.139s-.165-.744-.248-1.1-.165-.709-.248-1.057c-.047-.171-.088-.342-.13-.508a78.503 78.503 0 0 0-.266-.986 17.713 17.713 0 0 1-.637-4.062v-1.636a11.744 11.744 0 0 1 .159-1.63c.035-.266.083-.537.136-.8a18.013 18.013 0 0 1 .891-3.165c.195-.514.419-1.022.661-1.523a157.89 157.89 0 0 0 1.807-3.779c.319-.667.638-1.352.956-2.049s.644-1.405.969-2.126c3.064-6.832 6.088-14.443 6.9-19.444.083-.526.147-1.022.177-1.488a9.523 9.523 0 0 0 .019-1.28z" class="cls-43" data-name="Path 10042" transform="translate(-332.869 -203.214)"/>
        <path id="Path_10043" d="M857.222 475.785l-10.386-7.021s-16.492-6.111-21.073 3.36 19.851 4.582 19.851 4.582L856 482.5z" class="cls-44" data-name="Path 10043" transform="translate(-359.018 -214.64)"/>
        <path id="Rectangle_1427" d="M0 0h99.341v154.648H0z" class="cls-17" data-name="Rectangle 1427" transform="rotate(-57.25 483.303 -194.088)"/>
        <path id="Rectangle_1428" d="M0 0h28.106v6.613H0z" class="cls-14" data-name="Rectangle 1428" transform="rotate(-57.59 486.997 -212.107)"/>
        <path id="Rectangle_1429" d="M0 0h61.727v6.064H0z" class="cls-14" data-name="Rectangle 1429" transform="rotate(-57.59 500.378 -225.797)"/>
        <path id="Rectangle_1430" d="M0 0h61.727v6.064H0z" class="cls-14" data-name="Rectangle 1430" transform="rotate(-57.59 512 -232.327)"/>
        <path id="Rectangle_1431" d="M0 0h61.727v6.064H0z" class="cls-14" data-name="Rectangle 1431" transform="rotate(-57.59 523.631 -238.849)"/>
        <path id="Rectangle_1432" d="M0 0h61.64v6.056H0z" class="cls-14" data-name="Rectangle 1432" transform="rotate(-57.25 540.296 -247.13)"/>
        <path id="Rectangle_1433" d="M0 0h61.727v6.064H0z" class="cls-30" data-name="Rectangle 1433" transform="rotate(-57.59 546.881 -251.9)"/>
        <path id="Rectangle_1434" d="M0 0h61.727v6.064H0z" class="cls-30" data-name="Rectangle 1434" transform="rotate(-57.59 558.503 -258.43)"/>
        <path id="Rectangle_1435" d="M0 0h15.984v15.984H0z" class="cls-14" data-name="Rectangle 1435" transform="rotate(-57.59 554.77 -314.765)"/>
        <path id="Path_10044" d="M916.546 833.572a162.087 162.087 0 0 0-16.675-3.4c-6.111-.591-6.111-8.266-1.831-7.334 2.315.5 4.369-.8 5.757-2.1a13.5 13.5 0 0 0 1.181-1.293 3.544 3.544 0 0 1 1.978-1.21c2.291-.5 7.086-1.252 9.985.325a4.313 4.313 0 0 1 1.583 1.736c1.317 2.362 2 6.289 2.362 9.448a3.543 3.543 0 0 1-4.34 3.826z" class="cls-45" data-name="Path 10044" transform="translate(-387.718 -363.036)"/>
        <path id="Path_10045" d="M785.679 838.76a161.653 161.653 0 0 0-16.669-3.4c-6.111-.59-6.111-8.266-1.836-7.327 2.8.59 5.208-1.423 6.537-2.888.165-.177.313-.349.437-.508a3.542 3.542 0 0 1 1.972-1.181c2.291-.5 7.085-1.258 9.99.325a5.4 5.4 0 0 1 2.1 2.793 33.041 33.041 0 0 1 1.83 8.4 3.542 3.542 0 0 1-4.357 3.785z" class="cls-45" data-name="Path 10045" transform="translate(-333.918 -365.171)"/>
        <path id="Path_10046" d="M794.826 826.549c-7.292 7.516-13.545-.142-14.5-1.405.165-.177.313-.349.437-.508a3.543 3.543 0 0 1 1.972-1.181c2.291-.5 7.085-1.258 9.991.325a5.1 5.1 0 0 1 2.1 2.769z" class="cls-35" data-name="Path 10046" transform="translate(-340.542 -365.171)"/>
        <path id="Path_10047" d="M924.635 820.3c-3.159 2.155-13.793 1.624-13.793 1.624a9.969 9.969 0 0 1-.962-1.181 13.522 13.522 0 0 0 1.181-1.293 3.54 3.54 0 0 1 1.978-1.21c2.291-.5 7.086-1.252 9.984.324a4.314 4.314 0 0 1 1.612 1.736z" class="cls-35" data-name="Path 10047" transform="translate(-393.8 -363.036)"/>
        <path id="Path_10048" d="M871.709 748.595c-2.143 2.751-14.354 2.137-14.354 2.137s-3.667-3.667-5.2-11.6-14.661-33.29-14.661-33.29c-3.053-3.974-5.5-11.3-5.5-11.3l-5.19-33.29s-25.041 32.983-24.735 40.009-5.5 34.837-5.5 34.837c-2.138 3.667-2.138 17.123-2.138 17.123-7.936 8.267-14.655-1.529-14.655-1.529-1.53-6.412.915-27.486.915-27.486s3.667-17.714 3.968-28.708 3.974-13.74 3.974-13.74a97.943 97.943 0 0 1 14.342-31.684c1.842-2.64 3.065-4.051 3.065-4.051l49.475 5.8a31.127 31.127 0 0 0-2.126 6.554c-3.218 13.817-4.287 38.646-4.287 38.646 11.3 7.327 14.661 27.161 14.661 27.161.005 5.167 7.946 24.411 7.946 24.411z" class="cls-46" data-name="Path 10048" transform="translate(-340.266 -292.76)"/>
        <g id="Group_10441" class="cls-13" data-name="Group 10441" transform="translate(446.028 353.248)">
            <path id="Path_10049" d="M828.959 675.878l-.638-4.068s-25.041 32.983-24.734 40.009-5.5 34.837-5.5 34.837c-2.144 3.667-2.144 17.123-2.144 17.123a10.438 10.438 0 0 1-4.777 3.064c2.4.632 5.314.165 8.444-3.064 0 0 0-13.439 2.138-17.123 0 0 5.8-27.793 5.5-34.837-.236-5.497 15.052-26.907 21.711-35.941z" data-name="Path 10049" transform="translate(-791.17 -656.57)"/>
            <path id="Path_10050" d="M882.618 724.153s-3.36-19.851-14.656-27.161c0 0 1.069-24.829 4.281-38.646a31.125 31.125 0 0 1 2.131-6.554L824.9 646s-.118.13-.331.39l46.139 5.415a31.145 31.145 0 0 0-2.126 6.554C865.365 672.175 864.3 697 864.3 697c11.3 7.328 14.661 27.161 14.661 27.161 0 5.19 7.941 24.433 7.941 24.433-1.263 1.618-6.022 2.073-9.725 2.173 2.952.077 11.614.106 13.386-2.173-.003-.008-7.945-19.251-7.945-24.441z" data-name="Path 10050" transform="translate(-804.849 -646)"/>
        </g>
        <path id="Path_10051" d="M797.495 635.086a11.16 11.16 0 0 1-1.447 2.527c-1.836 2.474-5.656 5.745-12.648 4.848a3.006 3.006 0 0 1-2.067-4.724 18.819 18.819 0 0 1 9.205-7.086 16.814 16.814 0 0 1 3.9-.791z" class="cls-44" data-name="Path 10051" transform="translate(-340.73 -283.415)"/>
        <path id="Path_10052" d="M897.934 487.837l-24.492-8.957s-7.027 3.667-4.275 8.857l23.849 14.968z" class="cls-47" data-name="Path 10052" transform="translate(-376.83 -219.826)"/>
        <path id="Path_10053" d="M898.09 488.007l-24.5-8.957s-7.026 3.661-4.275 8.857l23.819 14.962z" class="cls-35" data-name="Path 10053" transform="translate(-376.892 -219.898)"/>
        <path id="Path_10054" d="M910.665 468.632s-.307 14.354 6.111 19.243-18.635 7.635-18.635 7.635 3.974-14.661 0-22.3 12.524-4.578 12.524-4.578z" class="cls-44" data-name="Path 10054" transform="translate(-388.732 -215.288)"/>
        <path id="Path_10055" d="M871.959 651.754a31.159 31.159 0 0 0-2.126 6.554c-29.523 4.511-50.1-7.776-50.1-7.776a7.93 7.93 0 0 1-.313-.532c1.842-2.639 3.065-4.051 3.065-4.051z" class="cls-35" data-name="Path 10055" transform="translate(-356.687 -290.215)"/>
        <path id="Path_10056" d="M804.266 635.106a11.154 11.154 0 0 1-1.446 2.527c-2.829-.472-5.09-5.9-5.509-6.932a16.8 16.8 0 0 1 3.9-.791z" class="cls-35" data-name="Path 10056" transform="translate(-347.509 -283.359)"/>
        <path id="Path_10057" d="M872.658 490.78l-10.994 3.968-4.582 6.111s-9.447 3.053-10.687 3.053-4.582 1.222-6.719 6.105-9.772 28.72-16.492 32.682-24.433 30.539-24.433 30.539 3.053 8.267 6.719 7.027l8.55-7.027s-6.72 6.719-2.752 12.831c0 0 25.047 14.963 59.559 5.8l.3-9.158 1.529 7.327 17.123-10.687s-1.529-19.716-4.286-29.747a18.139 18.139 0 0 1 1.181-12.642c4.434-9.241 11.278-24.675 10.445-30.3-.986-6.631-4.724-9.512-6.164-10.38a2.552 2.552 0 0 0-1.075-.36l-5.592-.555z" class="cls-47" data-name="Path 10057" transform="translate(-348.289 -226.06)"/>
        <path id="Path_10058" d="M865.629 542.76s-6.111 28.4-12.83 32.983-24.734 19.243-25.348 21.687" class="cls-6" data-name="Path 10058" transform="translate(-359.96 -247.264)"/>
        <path id="Path_10059" d="M860.973 541.21s-6.105 28.4-12.825 32.983-24.74 19.243-25.349 21.682" class="cls-47" data-name="Path 10059" transform="translate(-358.048 -246.608)"/>
        <path id="Path_10060" d="M897.28 503.775s21.073-7.026 27.161-5.2" class="cls-35" data-name="Path 10060" transform="translate(-388.647 -227.794)"/>
        <g id="Group_10442" class="cls-13" data-name="Group 10442" transform="translate(523.294 264.806)">
            <path id="Path_10061" d="M937.662 540.369c4.434-9.241 11.278-24.675 10.445-30.3-.986-6.631-4.724-9.512-6.164-10.38a2.551 2.551 0 0 0-1.075-.36l-2.362-.236a2.349 2.349 0 0 1 .709.289c1.429.874 5.178 3.749 6.159 10.386.833 5.621-6.011 21.062-10.439 30.3a18.127 18.127 0 0 0-1.181 12.636c2.763 10.038 4.293 29.747 4.293 29.747l-14.726 9.205.372 1.771 17.123-10.687s-1.529-19.715-4.287-29.747a18.137 18.137 0 0 1 1.133-12.624z" data-name="Path 10061" transform="translate(-922.641 -494.183)"/>
            <path id="Path_10062" d="M898.52 464.625l2.645.266-11.5-4.541-1.033.372z" data-name="Path 10062" transform="translate(-888.63 -460.35)"/>
        </g>
        <path id="Path_10063" d="M887.45 588.415s9.447-5.19 12.524-3.968 14.354-.307 14.354-.307" class="cls-6" data-name="Path 10063" transform="translate(-384.605 -264)"/>
        <path id="Path_10064" d="M909.627 473.3c-.348-3.064 1.069-2.6 1.069-2.6s-16.492-3.053-12.524 4.582a17.489 17.489 0 0 1 1.677 6.718h.159c4.583 0 7.258-5.122 9.619-8.7z" class="cls-6" data-name="Path 10064" transform="translate(-388.731 -215.979)"/>
        <circle id="Ellipse_3150" cx="13.132" cy="13.132" r="13.132" class="cls-44" data-name="Ellipse 3150" transform="translate(498.13 238.71)"/>
        <path id="Path_10065" d="M898.856 456.9a18.309 18.309 0 0 0 1.918-8.32 9.433 9.433 0 0 0-3.814-7.387c-1.228-.827-2.68-1.27-3.962-2.025-1-.59-1.878-1.364-2.829-2.025a16.008 16.008 0 0 0-15.99-1.181c-2.409 1.181-4.464 3.017-6.737 4.464s-4.954 2.557-7.617 2.132c-.461 1.269.667 2.521 1.7 3.395 1.967 1.647 4.193 3.289 6.755 3.342a7.068 7.068 0 0 1 2.952.224 4.236 4.236 0 0 1 1.5 1.393 27.491 27.491 0 0 1 3.117 5.285 4.384 4.384 0 0 0 1.394 2.055c1.181.756 2.71.124 4.133.071 2.173-.089 4.133 1.281 5.739 2.746s3.141 3.141 5.173 3.915c1.517.59 4.552.555 5.314-1.258.289-.685-.272-2.149-.154-2.988a14.462 14.462 0 0 1 1.405-3.838z" class="cls-35" data-name="Path 10065" transform="translate(-373.234 -201.104)"/>
        <path id="Path_10066" d="M899.32 456.368a18.221 18.221 0 0 0 1.919-8.314 9.446 9.446 0 0 0-3.809-7.387c-1.234-.833-2.687-1.275-3.962-2.031-1-.591-1.877-1.358-2.828-2.025a16.008 16.008 0 0 0-15.99-1.181c-2.409 1.181-4.464 3.011-6.737 4.458s-4.954 2.563-7.617 2.132c-.46 1.275.661 2.527 1.7 3.4 1.966 1.647 4.192 3.289 6.755 3.348a6.974 6.974 0 0 1 2.952.224 4.131 4.131 0 0 1 1.5 1.393 27.16 27.16 0 0 1 3.112 5.279 4.394 4.394 0 0 0 1.4 2.055c1.181.756 2.71.124 4.133.071 2.173-.083 4.133 1.287 5.733 2.751s3.141 3.135 5.178 3.909c1.517.59 4.552.555 5.314-1.258.3-.685-.266-2.149-.148-2.988a14.426 14.426 0 0 1 1.395-3.836z" class="cls-47" data-name="Path 10066" transform="translate(-373.427 -200.88)"/>
        <path id="Path_10067" d="M578.478 646.917a6.088 6.088 0 0 1-3.909 1.382l-263.8-1.122a8.119 8.119 0 0 1-1.813-6.182l26.064-213.256 16.344-.177a6.176 6.176 0 0 1 6.023 4.558l3.053 11.266a6.176 6.176 0 0 0 6.105 4.558l65.228-1.565a6.176 6.176 0 0 0 6.027-6.179v-7.46a6.176 6.176 0 0 1 6.106-6.176l90.387-.974a6.176 6.176 0 0 1 6.123 5.013l39.974 209.022.26 1.346a6.141 6.141 0 0 1-2.172 5.946z" class="cls-35" data-name="Path 10067" transform="translate(-147.015 -202.485)"/>
        <path id="Path_10068" d="M494.072 430.6l-90.387.974a6.176 6.176 0 0 0-6.111 6.17v7.469a6.176 6.176 0 0 1-6.023 6.17l-65.222 1.565a6.17 6.17 0 0 1-6.111-4.558l-3.064-11.26a6.17 6.17 0 0 0-6.029-4.558l-87.125.939a6.17 6.17 0 0 0-6.023 7.2L253.029 647a6.176 6.176 0 0 0 6.064 5.143l275.236 1.181a6.177 6.177 0 0 0 6.088-7.334l-40.222-210.377a6.17 6.17 0 0 0-6.123-5.013z" class="cls-48" data-name="Path 10068" transform="translate(-109.581 -204.537)"/>
        <path id="Path_10069" d="M882.164 176.11l-.472 5.255.343 9.294-1 15.677s-.141 6.867-4.021 10.085l-9.9 15.2-.059.03-3.726 1.819-5.686.59-2.953-7.15 1.954-7.853 1.086-1.464.3-.331c1.181-1.3 5.739-6.017 9.359-7.487a5.123 5.123 0 0 0 1.99-4.547c-.425-2.775 3.259-17.525 3.259-17.525s2.362-9.751 1.85-10.703-.094-22.544 8.054-22.874-.378 21.984-.378 21.984z" class="cls-4" data-name="Path 10069" transform="translate(-371.145 -81.087)"/>
        <ellipse id="Ellipse_3151" cx="9.571" cy="1.317" class="cls-37" data-name="Ellipse 3151" rx="9.571" ry="1.317" transform="translate(79.842 402.303)"/>
        <ellipse id="Ellipse_3152" cx="9.571" cy="1.317" class="cls-37" data-name="Ellipse 3152" rx="9.571" ry="1.317" transform="translate(43.18 406.017)"/>
        <ellipse id="Ellipse_3153" cx="9.571" cy="1.317" class="cls-37" data-name="Ellipse 3153" rx="9.571" ry="1.317" transform="translate(0 400.986)"/>
        <ellipse id="Ellipse_3154" cx="6.802" cy=".933" class="cls-37" data-name="Ellipse 3154" rx="6.802" ry=".933" transform="translate(60.622 416.988)"/>
        <ellipse id="Ellipse_3155" cx="6.802" cy=".933" class="cls-37" data-name="Ellipse 3155" rx="6.802" ry=".933" transform="translate(22.573 416.055)"/>
        <path id="Path_10070" d="M94.262 686.7s13.421-44-2.1-61.626c-11.614-13.185-24.8-11.608-30.7-9.979a10.918 10.918 0 0 0-7.038 5.852c-2.072 4.453-1.7 11.683 12.876 20.121 24.392 14.124 25.909 33.5 25.909 33.5z" class="cls-36" data-name="Path 10070" transform="translate(-41.718 -277.769)"/>
        <path id="Path_10071" d="M70.54 626.41s39.561 12.4 30.7 65.364" class="cls-49" data-name="Path 10071" transform="translate(-48.693 -282.871)"/>
        <path id="Path_10072" d="M106.867 633.92s-5.45 3.673-3.714 9.194" class="cls-49" data-name="Path 10072" transform="translate(-61.91 -285.073)"/>
        <path id="Path_10073" d="M77.26 638.016s3.33-3.389 7.387-1.517" class="cls-49" data-name="Path 10073" transform="translate(-51.445 -285.816)"/>
        <path id="Path_10074" d="M103.75 667.546s5.851-2.952 7.363.75" class="cls-49" data-name="Path 10074" transform="translate(-62.294 -298.674)"/>
        <path id="Path_10075" d="M125.16 678.775s-4.393-.349-4.47 1.771" class="cls-49" data-name="Path 10075" transform="translate(-69.232 -303.871)"/>
        <path id="Path_10076" d="M107 715.987s-15.724-31.979-20.04-31.294c-2.049.337-2.994 2.362-3.425 4.381a12.867 12.867 0 0 0 .856 7.782c2.23 5.137 8.223 14.85 22.609 19.131z" class="cls-36" data-name="Path 10076" transform="translate(-53.91 -306.879)"/>
        <path id="Path_10077" d="M89.71 695s16.5 23.926 19.686 24.976" class="cls-49" data-name="Path 10077" transform="translate(-56.544 -311.123)"/>
        <path id="Line_5" d="M0 0h3.85" class="cls-49" data-name="Line 5" transform="translate(31.649 387.967)"/>
        <path id="Line_6" d="M0 0l6.04.26" class="cls-49" data-name="Line 6" transform="translate(36.26 394.668)"/>
        <path id="Line_7" d="M.655 0L0 3.147" class="cls-49" data-name="Line 7" transform="translate(39.283 387.666)"/>
        <path id="Line_8" d="M.118 0L0 2.858" class="cls-49" data-name="Line 8" transform="translate(46.239 397.237)"/>
        <path id="Path_10078" d="M122.66 715.987s15.718-31.979 20.034-31.294c2.055.337 3 2.362 3.425 4.381a12.867 12.867 0 0 1-.856 7.782c-2.232 5.137-8.231 14.85-22.603 19.131z" class="cls-36" data-name="Path 10078" transform="translate(-70.038 -306.879)"/>
        <path id="Path_10079" d="M142.742 695s-16.533 23.926-19.692 24.976" class="cls-49" data-name="Path 10079" transform="translate(-70.198 -311.123)"/>
        <path id="Line_9" d="M3.85 0H0" class="cls-49" data-name="Line 9" transform="translate(70.211 387.967)"/>
        <path id="Line_10" d="M6.04 0L0 .26" class="cls-49" data-name="Line 10" transform="translate(63.409 394.668)"/>
        <path id="Line_11" d="M0 0l.655 3.147" class="cls-49" data-name="Line 11" transform="translate(65.771 387.666)"/>
        <path id="Line_12" d="M0 0l.118 2.858" class="cls-49" data-name="Line 12" transform="translate(59.353 397.237)"/>
        <path id="Path_10080" d="M76.292 747.337a2.715 2.715 0 0 1-.892-1.352 1.181 1.181 0 0 1 .626-1.376 1.735 1.735 0 0 1 1.653.59 2.111 2.111 0 0 0 1.6.75 2.445 2.445 0 0 1-.756-2.291.932.932 0 0 1 .207-.466c.319-.343.9-.195 1.281.076a4.848 4.848 0 0 1 1.559 3.986 7.62 7.62 0 0 0 0-1.642 1.683 1.683 0 0 1 .661-1.434 1.841 1.841 0 0 1 .939-.224 1.948 1.948 0 0 1 1.529.437 1.517 1.517 0 0 1-.059 1.872 6.031 6.031 0 0 1-1.582 1.264 3.538 3.538 0 0 0-1.128 1.081.792.792 0 0 0-.083.189h-3.435a9.538 9.538 0 0 1-2.12-1.46z" class="cls-36" data-name="Path 10080" transform="translate(-50.666 -332.475)"/>
        <path id="Path_10081" d="M177.742 725.541a2.675 2.675 0 0 1-.892-1.346 1.181 1.181 0 0 1 .62-1.376 1.735 1.735 0 0 1 1.653.591 2.177 2.177 0 0 0 1.612.773 2.445 2.445 0 0 1-.762-2.285.94.94 0 0 1 .213-.466c.319-.343.9-.195 1.281.071 1.21.856 1.553 2.5 1.559 3.991a7.672 7.672 0 0 0 0-1.648 1.689 1.689 0 0 1 .59-1.452 1.882 1.882 0 0 1 .939-.219 1.973 1.973 0 0 1 1.529.431 1.517 1.517 0 0 1-.065 1.877 5.9 5.9 0 0 1-1.577 1.264 3.5 3.5 0 0 0-1.128 1.074.974.974 0 0 0-.083.195h-3.36a9.454 9.454 0 0 1-2.129-1.475z" class="cls-36" data-name="Path 10081" transform="translate(-92.214 -323.563)"/>
        <path id="Path_10082" d="M143.928 747.357a2.77 2.77 0 0 1-.9-1.352 1.181 1.181 0 0 1 .626-1.376 1.735 1.735 0 0 1 1.653.59 2.194 2.194 0 0 0 1.612.779 2.462 2.462 0 0 1-.762-2.291.94.94 0 0 1 .213-.467c.319-.342.9-.195 1.281.077 1.21.85 1.547 2.5 1.559 3.985a7.618 7.618 0 0 0 0-1.641 1.689 1.689 0 0 1 .62-1.452 1.827 1.827 0 0 1 .939-.225 1.956 1.956 0 0 1 1.529.437 1.512 1.512 0 0 1-.065 1.872 6 6 0 0 1-1.576 1.264 3.541 3.541 0 0 0-1.128 1.08.789.789 0 0 0-.083.189h-3.425a9.641 9.641 0 0 1-2.093-1.469z" class="cls-36" data-name="Path 10082" transform="translate(-78.364 -332.495)"/>
        <path id="Path_10083" d="M46.691 706.25s-1.281 1.677.59 4.21 3.419 4.671 2.793 6.247c0 0-2.828-4.724-5.131-4.765s-.785-2.887 1.748-5.692z" class="cls-36" data-name="Path 10083" transform="translate(-37.745 -317.427)"/>
        <path id="Path_10084" d="M46.694 706.25a2.114 2.114 0 0 0-.26.526c-2.244 2.639-3.442 5.1-1.281 5.166 2.008.059 4.423 3.649 5 4.559a2.1 2.1 0 0 1-.065.206s-2.828-4.724-5.131-4.765-.796-2.887 1.737-5.692z" class="cls-35" data-name="Path 10084" transform="translate(-37.748 -317.427)"/>
        <path id="Path_10085" d="M44.66 709.608c0 .59.065 1.069.148 1.069s.148-.478.148-1.069-.083-.313-.165-.313-.131-.278-.131.313z" class="cls-50" data-name="Path 10085" transform="translate(-38.094 -318.647)"/>
        <path id="Path_10086" d="M43.05 710.789c.52.283.968.449 1.01.378s-.348-.355-.868-.638-.313-.077-.354 0-.308-.023.212.26z" class="cls-50" data-name="Path 10086" transform="translate(-37.305 -319.12)"/>
        <path id="Path_10087" d="M57.715 706.25s1.287 1.677-.59 4.21-3.419 4.671-2.793 6.247c0 0 2.828-4.724 5.131-4.765s.785-2.887-1.748-5.692z" class="cls-36" data-name="Path 10087" transform="translate(-41.997 -317.427)"/>
        <path id="Path_10088" d="M57.764 706.25a2.241 2.241 0 0 1 .266.525c2.244 2.64 3.442 5.1 1.281 5.166-2.008.059-4.423 3.649-5 4.559a1.209 1.209 0 0 0 .071.206s2.828-4.724 5.131-4.765.787-2.886-1.749-5.691z" class="cls-35" data-name="Path 10088" transform="translate(-42.046 -317.427)"/>
        <path id="Path_10089" d="M64 709.608c0 .59-.065 1.069-.148 1.069s-.148-.478-.148-1.069.083-.313.165-.313.131-.278.131.313z" class="cls-50" data-name="Path 10089" transform="translate(-45.892 -318.647)"/>
        <path id="Path_10090" d="M64.888 710.789c-.52.283-.974.449-1.01.378s.348-.355.868-.638.313-.077.348 0 .306-.023-.206.26z" class="cls-50" data-name="Path 10090" transform="translate(-45.964 -319.12)"/>
        <path id="Path_10091" d="M54.256 722.246s-3.584-.112-4.665-.88-5.515-1.689-5.786-.455-5.385 6.141-1.34 6.17 9.406-.632 10.487-1.287 1.304-3.548 1.304-3.548z" class="cls-38" data-name="Path 10091" transform="translate(-36.56 -323.185)"/>
        <path id="Path_10092" d="M42.4 727.991c4.051.035 9.406-.626 10.487-1.287.821-.5 1.145-2.291 1.258-3.124h.118s-.224 2.893-1.3 3.543-6.436 1.323-10.487 1.287c-1.181 0-1.571-.425-1.547-1.039.15.383.628.59 1.471.62z" class="cls-39" data-name="Path 10092" transform="translate(-36.562 -324.524)"/>
        <circle id="Ellipse_3156" cx="12.772" cy="12.772" r="12.772" class="cls-36" data-name="Ellipse 3156" transform="translate(7.269 62.046)"/>
        <circle id="Ellipse_3157" cx="12.772" cy="12.772" r="12.772" class="cls-36" data-name="Ellipse 3157" transform="translate(636.659 189.653)"/>
        <circle id="Ellipse_3158" cx="12.772" cy="12.772" r="12.772" class="cls-36" data-name="Ellipse 3158" transform="translate(390.767 21.488)"/>
        <circle id="Ellipse_3159" cx="21.404" cy="21.404" r="21.404" class="cls-36" data-name="Ellipse 3159" transform="translate(24.179 121.076)"/>
        <path id="Path_10093" d="M463.038 612.946l-.756-.756a.809.809 0 0 1 0-1.181l6.631-6.637a.809.809 0 0 1 1.181 0l6.631 6.628a.821.821 0 0 1 0 1.181l-.756.756a.821.821 0 0 1-1.181 0l-3.921-4.133v9.808a.815.815 0 0 1-.815.821h-1.092a.821.821 0 0 1-.821-.821v-9.8l-3.921 4.133a.821.821 0 0 1-1.181-.006z" class="cls-41" data-name="Path 10093" transform="translate(-209.689 -272.589)"/>
        <path id="Path_10094" d="M464.108 593.111a13.456 13.456 0 1 1-13.456 13.456 13.457 13.457 0 0 1 13.456-13.456m0-1.771a15.228 15.228 0 1 0 15.228 15.228 15.228 15.228 0 0 0-15.228-15.228z" class="cls-41" data-name="Path 10094" transform="translate(-204.301 -267.425)"/>
    </g>
</svg>
