<svg xmlns="http://www.w3.org/2000/svg" id="password" width="28.531" height="24.987" viewBox="0 0 28.531 24.987">
    <defs>
        <style>
            .cls-1{fill:#2143e9}
        </style>
    </defs>
    <g id="Group_10558" data-name="Group 10558">
        <g id="Group_10557" data-name="Group 10557">
            <path id="Path_10829" d="M15.577 37.164a6.593 6.593 0 1 0-13.185 0v3.32A8.943 8.943 0 0 0 0 46.572v7.278a1.708 1.708 0 0 0 1.709 1.708h14.553a1.708 1.708 0 0 0 1.708-1.708v-7.277a8.946 8.946 0 0 0-2.392-6.09v-3.319zm-5.323 10.018v2.084a1.27 1.27 0 1 1-2.539 0v-2.084a2.126 2.126 0 1 1 2.539 0zm2.451-8.78a8.911 8.911 0 0 0-7.441 0v-1.238a3.721 3.721 0 1 1 7.441 0V38.4z" class="cls-1" data-name="Path 10829" transform="translate(0 -30.571)"/>
            <path id="Path_10830" d="M331.383 86.457a4.786 4.786 0 0 0-2.124 9.08v7.969a2.954 2.954 0 0 0 2.954 2.954 1.293 1.293 0 0 0 1.294-1.293v-9.63a4.786 4.786 0 0 0-2.124-9.08zm0 3.945a1.127 1.127 0 1 1 1.127-1.127 1.127 1.127 0 0 1-1.127 1.125z" class="cls-1" data-name="Path 10830" transform="translate(-307.649 -83.217)"/>
        </g>
    </g>
</svg>
