<svg xmlns="http://www.w3.org/2000/svg" id="user_2_" width="21.795" height="23.775" data-name="user (2)" viewBox="0 0 21.795 23.775">
    <defs>
        <style>
            .cls-1{fill:#2143e9}
        </style>
    </defs>
    <g id="Group_10556" data-name="Group 10556">
        <path id="Path_10827" d="M115.573 11.888a5.727 5.727 0 0 0 4.2-1.741 5.727 5.727 0 0 0 1.741-4.2 5.728 5.728 0 0 0-1.741-4.2 5.943 5.943 0 0 0-8.405 0 5.727 5.727 0 0 0-1.741 4.2 5.726 5.726 0 0 0 1.741 4.2 5.727 5.727 0 0 0 4.205 1.741z" class="cls-1" data-name="Path 10827" transform="translate(-104.676)"/>
        <path id="Path_10828" d="M40.008 208.259a15.847 15.847 0 0 0-.217-1.687 13.124 13.124 0 0 0-.41-1.679 7.965 7.965 0 0 0-.666-1.509 5.437 5.437 0 0 0-.96-1.254 4.042 4.042 0 0 0-1.323-.828 4.653 4.653 0 0 0-1.726-.31 1.893 1.893 0 0 0-.65.333q-.51.333-1.153.743a7.322 7.322 0 0 1-1.672.743 6.581 6.581 0 0 1-4.133 0 7.321 7.321 0 0 1-1.672-.743q-.642-.41-1.153-.743a1.892 1.892 0 0 0-.65-.333 4.65 4.65 0 0 0-1.726.31 4.041 4.041 0 0 0-1.324.828 5.444 5.444 0 0 0-.96 1.254 7.977 7.977 0 0 0-.665 1.509 13.125 13.125 0 0 0-.41 1.679 15.754 15.754 0 0 0-.217 1.687q-.054.782-.054 1.6a3.858 3.858 0 0 0 1.13 2.933 4.176 4.176 0 0 0 3 1.075H35.93a4.176 4.176 0 0 0 3-1.075 3.857 3.857 0 0 0 1.13-2.933q.002-.818-.052-1.6z" class="cls-1" data-name="Path 10828" transform="translate(-18.268 -190.095)"/>
    </g>
</svg>
