<svg xmlns="http://www.w3.org/2000/svg" xmlns:xlink="http://www.w3.org/1999/xlink" width="851.387" height="642.189" viewBox="0 0 851.387 642.189">
    <defs>
        <style>
            .cls-1{fill:#a6cdef}.cls-2,.cls-6{fill:#3c82ff}.cls-2,.cls-4,.cls-8{opacity:.1}.cls-3{fill:#fff}.cls-32,.cls-5{opacity:.2}.cls-7{fill:#ffd2c6}.cls-9{fill:#626696}.cls-10{fill:#ffcde5}.cls-11{fill:#985c7e}.cls-12{fill:url(#linear-gradient)}.cls-13{fill:#cc818c}.cls-14{fill:#444053}.cls-15,.cls-28{opacity:.05}.cls-16{fill:#ff748f}.cls-17,.cls-19{fill:#575988}.cls-18{fill:#dce6f2}.cls-19{opacity:.5}.cls-20{fill:#67647e}.cls-21{fill:#585268}.cls-22{fill:#e4aab4}.cls-23{fill:#ffd037}.cls-24{fill:#65617d}.cls-25{fill:#9d9cb5}.cls-26{fill:url(#linear-gradient-2)}.cls-27{fill:#2d293d}.cls-29{fill:#ffcdd3}.cls-30{fill:#656691}.cls-31{fill:#a8a8a8}
        </style>
        <linearGradient id="linear-gradient" x1=".877" x2=".877" y1="1" gradientUnits="objectBoundingBox">
            <stop offset="0" stop-color="gray" stop-opacity=".251"/>
            <stop offset=".54" stop-color="gray" stop-opacity=".122"/>
            <stop offset="1" stop-color="gray" stop-opacity=".102"/>
        </linearGradient>
        <linearGradient id="linear-gradient-2" x1=".5" x2=".5" y1="1" xlink:href="#linear-gradient"/>
    </defs>
    <g id="undraw_work_chat_erdt" transform="translate(-.016 -.004)">
        <path id="Path_10668" d="M585.414 131.445c-36.532 31.011-83.918 29-125.442 12.867S380.3 99.454 339.846 79.036a337.262 337.262 0 0 0-105.537-33.357c-51.564-7.156-109.147 1.58-145.071 51.69-40.007 55.831-36.938 156.524 6.32 207.74 22.014 26.066 50.837 38.862 75.971 59.242s48.412 54.155 46.272 93.444c-1.983 36.335-25.024 64.273-48.87 81.785-18.428 13.531-41.122 28.31-43.341 56.343-2.148 27.117 16.935 48.373 35.158 60.458 59.447 39.423 132.7 39.044 191.943-1 21.122-14.289 40.521-33.294 62.677-44.415 58.175-29.226 122.282.19 183.886 10.956a305.989 305.989 0 0 0 156.4-13.807c30.505-10.924 61.129-27.646 82.559-58.736 15.458-22.433 25.087-50.829 34.123-78.87q14.455-44.842 27.8-90.331c5.332-18.207 10.585-36.761 11.967-56.232 2.5-35.292-8.025-70.181-22.354-99.96-34.021-70.719-91.319-120.442-153.372-133.072s-127.7 12.038-175.829 66.019" class="cls-1" data-name="Path 10668" transform="translate(-61.06 -43.49)"/>
        <ellipse id="Ellipse_3320" cx="179.289" cy="8.183" class="cls-2" data-name="Ellipse 3320" rx="179.289" ry="8.183" transform="translate(207.412 412.456)"/>
        <path id="Path_10669" d="M499.763 446.766c-89.629 0-162.543-72.914-162.543-162.543S410.111 121.68 499.763 121.68s162.519 72.92 162.519 162.543-72.922 162.543-162.519 162.543zm0-323.506C411 123.26 338.8 195.471 338.8 284.223s72.18 160.963 160.963 160.963 160.963-72.211 160.963-160.963S588.491 123.26 499.763 123.26z" class="cls-3" data-name="Path 10669" transform="translate(-119.081 -59.918)"/>
        <path id="Path_10670" d="M509.464 419.992A126.066 126.066 0 1 1 635.53 293.926a126.219 126.219 0 0 1-126.066 126.066zm0-250.552A124.486 124.486 0 1 0 633.95 293.926 124.63 124.63 0 0 0 509.464 169.44z" class="cls-3" data-name="Path 10670" transform="translate(-128.782 -69.621)"/>
        <path id="Path_10671" d="M519.888 391.235a86.888 86.888 0 1 1 86.887-86.888 86.888 86.888 0 0 1-86.887 86.888zm0-172.2a85.308 85.308 0 1 0 85.312 85.313 85.308 85.308 0 0 0-85.312-85.308z" class="cls-3" data-name="Path 10671" transform="translate(-139.206 -80.042)"/>
        <ellipse id="Ellipse_3321" cx="11.272" cy="3.728" class="cls-2" data-name="Ellipse 3321" rx="11.272" ry="3.728" transform="translate(762.813 314.724)"/>
        <ellipse id="Ellipse_3322" cx="66.382" cy="10.893" class="cls-2" data-name="Ellipse 3322" rx="66.382" ry="10.893" transform="translate(74.656 503.973)"/>
        <g id="Group_10544" class="cls-4" data-name="Group 10544" transform="translate(44.3 213.049)">
            <path id="Path_10672" d="M330.244 313.21h-202.52a10.616 10.616 0 0 0-10.584 10.584v127.962a10.616 10.616 0 0 0 10.584 10.584h158.87s4.115 21.848-9.408 24.2c0 0 30.284 2.172 24.992-24.2h28.065a10.616 10.616 0 0 0 10.584-10.585V323.794a10.616 10.616 0 0 0-10.583-10.584z" data-name="Path 10672" transform="translate(-117.14 -313.21)"/>
            <g id="Group_10543" class="cls-5" data-name="Group 10543" transform="translate(29.81 33.965)">
                <rect id="Rectangle_2413" width="164.06" height="10" data-name="Rectangle 2413" rx="5"/>
                <rect id="Rectangle_2414" width="164.06" height="10" data-name="Rectangle 2414" rx="5" transform="translate(0 44.692)"/>
                <rect id="Rectangle_2415" width="137.583" height="10" data-name="Rectangle 2415" rx="5" transform="translate(0 67.03)"/>
                <rect id="Rectangle_2416" width="71.137" height="10" data-name="Rectangle 2416" rx="5" transform="translate(0 22.346)"/>
            </g>
        </g>
        <path id="Path_10673" d="M332.482 312.09H129.954a10.616 10.616 0 0 0-10.584 10.584v127.962a10.616 10.616 0 0 0 10.585 10.585h158.87s4.123 21.848-9.407 24.194c0 0 30.284 2.172 24.992-24.194h28.073a10.608 10.608 0 0 0 10.577-10.585V322.674a10.608 10.608 0 0 0-10.578-10.584z" class="cls-3" data-name="Path 10673" transform="translate(-73.308 -99.925)"/>
        <g id="Group_10545" class="cls-5" data-name="Group 10545" transform="translate(75.88 246.13)">
            <rect id="Rectangle_2417" width="164.06" height="10" class="cls-6" data-name="Rectangle 2417" rx="5"/>
            <rect id="Rectangle_2418" width="164.06" height="10" class="cls-6" data-name="Rectangle 2418" rx="5" transform="translate(0 44.692)"/>
            <rect id="Rectangle_2419" width="137.583" height="10" class="cls-6" data-name="Rectangle 2419" rx="5" transform="translate(0 67.038)"/>
            <rect id="Rectangle_2420" width="71.137" height="10" class="cls-6" data-name="Rectangle 2420" rx="5" transform="translate(0 22.346)"/>
        </g>
        <path id="Path_10674" d="M283.2 306.034L271.976 329.9s-1.659 4.479-2.725 5.308-5.782 15.008-5.782 15.008l-12.03 18.594-.79 1.264-4.739-1.3-3.31-12.374.205-3.594v-.45s7.449-7.788 9.1-8.381c0 0 1.3.15 3.784-5.885s4.739-7.346 4.739-7.346l1.3-4.376 13.949-22.2s11.69-16.769 14.874-9.328-7.351 11.194-7.351 11.194z" class="cls-7" data-name="Path 10674" transform="translate(-99.201 -95.899)"/>
        <path id="Path_10675" d="M226.488 522.344a2.685 2.685 0 0 1-.379 1.145c-1.3 1.888-8.618 40.513-8.618 40.513.585 2.607-1.058 7.8-2.133 10.166s-3.428 14.645-3.428 14.645-.584 26.461-2.117 30.592.49 12.994.49 12.994c-.15 4.076 2.3 8.381 3.752 10.577.111.142.2.284.284.4.474.679.79 1.066.79 1.066a6.151 6.151 0 0 0 1.651 2.046c.1.087.213.166.332.253a18.8 18.8 0 0 0 6.619 2.8l.229.048c.948.213 1.58.292 1.58.292l.584 3.16-6.256 1.3-11.927.79s-14.06 1.066-10.869-5.2a9.906 9.906 0 0 0 .577-1.327c.118-.3.229-.616.324-.932 1.919-6.019.624-13.333.624-13.333l-2.749-21.287c-4.479-19.842 3.539-41.935 3.539-41.935s-.7-1.77.837-6.256 0-14.289 0-14.289-.79-12.638-1.888-18.9a38.191 38.191 0 0 1-.427-7.954 39.726 39.726 0 0 1 .427-4.661l26.935-3.57s1.517 4.353 1.217 6.857z" class="cls-7" data-name="Path 10675" transform="translate(-89.092 -142.66)"/>
        <path id="Path_10676" d="M226.647 686.841l-6.256 1.3-11.927.79s-14.06 1.066-10.869-5.2a9.9 9.9 0 0 0 .577-1.327c.119-.3.229-.616.324-.932a21.642 21.642 0 0 1 7.109 1.438c4 1.58 7.022-2.488 7.022-2.488l1.943-3.712.284-.537c.474.679.79 1.067.79 1.067a6.318 6.318 0 0 0 1.983 2.29l-.332.7-1.888 3.949s2.417.245 5.727.79a2.559 2.559 0 0 0 3.112-1.706l.229.047c.948.213 1.58.292 1.58.292z" class="cls-8" data-name="Path 10676" transform="translate(-89.645 -176.423)"/>
        <path id="Path_10677" d="M232.165 690.046c-.474 2.125-13.641 2.78-13.641 2.78s-7.33-.711-9.384 1-8.1 1.3-8.341 1.3-3.42-.126-4.668-5.845c-1.209-5.577 1.627-6.548 1.769-6.6a21.435 21.435 0 0 1 7.449 1.446c4 1.58 7.022-2.48 7.022-2.48l2.229-4.247c.474.679.79 1.066.79 1.066a6.242 6.242 0 0 0 1.983 2.3l-2.22 4.668s2.417.245 5.727.79a2.735 2.735 0 0 0 3.341-2.6 2.686 2.686 0 0 0 0-.355s2.062.592 4.6 1.3a4.739 4.739 0 0 1 3.344 5.477z" class="cls-9" data-name="Path 10677" transform="translate(-89.374 -176.682)"/>
        <path id="Path_10678" d="M265.4 549.686c-.316 1.888-.64 6.777-.64 6.777 1.106 4.092-1.73 13.815-1.73 13.815l-1.414 5.529c.632 7.109-3.894 24.415-3.894 24.415s-3.033 16.066-4.613 23a19.124 19.124 0 0 0 .79 11.58c.079.19.126.284.126.284a1.326 1.326 0 0 0 .095.387c.04.126.1.379.166.561a8.531 8.531 0 0 0 1.58 2.639 7.983 7.983 0 0 0 .845.869l.047.047a17.092 17.092 0 0 0 5.024 3.089l.79.316a23.793 23.793 0 0 0 2.5.79 2.636 2.636 0 0 0 .284.063l-.64 3.712-8.341-2.133L245.2 641.8l-5.529-3.16s.063-.3.174-.877v-.095c.047-.245.095-.537.166-.869.94-4.818 3.08-18.483 2.006-28.515-1.335-12.441 3.847-29.613 5.111-33.7a20.439 20.439 0 0 0 .948-7.243c-2.054-3-2.528-14.96-2.528-14.96s-3.776-7.725-6.9-15.916a41.867 41.867 0 0 1-2.251-8.278 28.941 28.941 0 0 1-.458-6.05s25.371-23.152 28.152-.735c.095.79.182 1.485.269 2.2 2.43 20.483 1.34 24.259 1.04 26.084z" class="cls-7" data-name="Path 10678" transform="translate(-97.798 -141.85)"/>
        <path id="Path_10679" d="M266.407 676.72l-.64 3.712-8.341-2.133-11.177-3.625-5.529-3.16s.063-.3.174-.877v-.095c.047-.245.095-.537.166-.869l.79-.079h.063a10.524 10.524 0 0 1 4.684.632c1.817.687 4.2 1.469 4.692 1.137a5.977 5.977 0 0 1 2.678-.474l1.161-2.543.166-.387a8.44 8.44 0 0 0 1.58 2.638 8.936 8.936 0 0 0 .893.916l-.047.9-.063 1.272a16.262 16.262 0 0 0 4.013 1.856 2.319 2.319 0 0 0 1.122 0l.79.316a23.783 23.783 0 0 0 2.5.79 2.6 2.6 0 0 0 .325.073z" class="cls-8" data-name="Path 10679" transform="translate(-98.806 -174.698)"/>
        <path id="Path_10680" d="M262.053 684.894c-2.33-.671-7.946-1.738-8.855-.908s-8.689 0-8.689 0a4.739 4.739 0 0 1-4.021-2.37c-1.58-2.52-.308-10.672-.308-10.672l.577-.055.964-.095h.063a10.4 10.4 0 0 1 4.684.632c1.817.679 4.2 1.461 4.692 1.137a5.86 5.86 0 0 1 2.678-.474l1.327-2.931a8.528 8.528 0 0 0 1.58 2.638 8.91 8.91 0 0 0 .892.916l-.11 2.172a16.357 16.357 0 0 0 4.013 1.848 1.58 1.58 0 0 0 1.927-.608 1.2 1.2 0 0 0 .142-.324c.071.134.837.395 3.294 1.1 2.67-.15 5.245 1.011 6.43 4.629s-8.997 4.029-11.28 3.365z" class="cls-9" data-name="Path 10680" transform="translate(-98.591 -174.95)"/>
        <path id="Path_10681" d="M227.4 522.338a46 46 0 0 0-1.438.434 19.935 19.935 0 0 1-3.483.735c-7.449 1.051-19.747.419-23.641.174a39.73 39.73 0 0 1 .427-4.66l26.935-3.57s1.5 4.383 1.2 6.887z" class="cls-8" data-name="Path 10681" transform="translate(-90.006 -142.654)"/>
        <path id="Path_10682" d="M250.247 506.027s-9.889 1.532-17.93 3.294c-2.686.585-5.166 1.193-7 1.793a21.5 21.5 0 0 1-3.483.735c-8.957 1.256-24.866.095-24.866.095-4.368-14.171 5.308-32.014 5.308-32.014-.229-1.422 2.014-5.782 2.014-5.782l.039-.142 1.374-5.055h36.738l.45 2.172.932 4.423 5.766 27.385z" class="cls-9" data-name="Path 10682" transform="translate(-89.375 -132.884)"/>
        <path id="Path_10683" d="M264.357 523.585l-.221.095-4.3 1.9c-4.652 2.149-18.578 2.551-23.444 2.591a28.943 28.943 0 0 1-.458-6.05s25.371-23.152 28.152-.734c.097.8.184 1.487.271 2.198z" class="cls-8" data-name="Path 10683" transform="translate(-97.798 -141.848)"/>
        <path id="Path_10684" d="M258.949 512.438l-.9.4-4.3 1.911c-4.739 2.18-19.107 2.567-23.7 2.591h-1.208c-2.125-.071-4.25-2.062-4.25-2.583 0-.284-.221-1.682-.411-2.883-.158-.964-.3-1.793-.3-1.793s-9.479-4.092-14.289-7.4c-3.61-2.456-2.7-19.913-2-28.689.245-3.025.458-5.016.458-5.016l37.188 2.172 5.213.3 2.986.664.79.166s2.133 15.592 3.16 16.888.363 5.672.237 8.16a15.155 15.155 0 0 1-.348 3.16s1.532 4.376 1.169 6.825a13.612 13.612 0 0 0 .505 5.127z" class="cls-9" data-name="Path 10684" transform="translate(-91.711 -132.888)"/>
        <circle id="Ellipse_3323" cx="15.237" cy="15.237" r="15.237" class="cls-7" data-name="Ellipse 3323" transform="translate(112.199 219.59)"/>
        <path id="Path_10685" d="M209.67 348.816s1.058 14.431-1.888 17.741-10.632 9.566-10.632 9.566l2.37 9.8 13.349 1.54 15.592-16.659-3.547-4.368s-2.717-9.218-.474-13.823-14.77-3.797-14.77-3.797z" class="cls-7" data-name="Path 10685" transform="translate(-89.651 -107.631)"/>
        <path id="Path_10686" d="M251.439 384.369l-.79 1.264-4.739-1.3-3.31-12.378.205-3.594.972-1.4s5.2.126 4.968 4.85c-.229 4.146 2.133 10.978 2.694 12.558z" class="cls-8" data-name="Path 10686" transform="translate(-99.201 -111.454)"/>
        <path id="Path_10687" d="M254.149 474.147s-3.76.837-8.065 1.4-9.273.845-11.311-.34c-3.42-2.022-21.951-1.445-27.267-1.24a6.072 6.072 0 0 0-.916.04l1.375-5.055H244.7l.45 2.172 5.213.3 2.986.664c.5 1.222.8 2.059.8 2.059z" class="cls-8" data-name="Path 10687" transform="translate(-91.634 -132.884)"/>
        <path id="Path_10688" d="M230.331 368.15s5.2.118 4.96 4.842 2.836 12.875 2.836 12.875l-1.185 2.717s-1.651 6.611-.355 8.27 6.027 1.651 3.31 15.237c0 0-.585 10.158.829 13.467s1.414 11.216 3.539 14.526 4.968 10.987 4.968 10.987-15.363 3.42-19.376 1.058-28.7-1.161-28.7-1.161.118-4.139 0-4.6a3.949 3.949 0 0 1 .592-3.017c.79-1.122 2.125-3.01 1.414-4.66s1.777-4.092.474-6.651-2.883-3.073-2.567-4.471-.505-3.294-1.445-4.471-7.33-13.665-7.33-13.665l-1.058-5.853s-8.223-6.027-8.073-8.863 3.112-6.761 3.112-6.761l7.9-7.765s4.368 4.739 8.618 3.073 13.42-9.566 13.42-9.566 3.27-1.769 3.507-3.065 2.243-.118 2.243-.118 2.954-1.619 3.547-1.051 3.16 1.051 3.16 1.051z" class="cls-10" data-name="Path 10688" transform="translate(-86.711 -111.704)"/>
        <path id="Path_10689" d="M176.251 399.3l-2.52 1.967s-2.559 4.613-3.16 12.875a176.406 176.406 0 0 1-3.16 19.953l-4.96 8.87s-8.175 17.117-9.234 21.659-5.908 12.227-5.908 12.227-16.422 14.755-4.961 17.378 11.809-11.746 11.809-11.746 2.678-2.954 3.112-4.96 14.96-27.7 14.96-27.7 5.087-6.911 4.021-10.569c0 0 6.611-15.553 6.611-19.455a69.1 69.1 0 0 0-1.058-9.676l1.058-8.151z" class="cls-7" data-name="Path 10689" transform="translate(-77.283 -118.249)"/>
        <path id="Path_10690" d="M225.669 440.53s-11.58 6.058-13.823 6.374 9.8-1.264 9.8-1.264z" class="cls-8" data-name="Path 10690" transform="translate(-92.68 -126.912)"/>
        <path id="Path_10691" d="M235.5 446.51s-15.355 5.2-22.117 4.25c.029-.001 16.798 3.191 22.117-4.25z" class="cls-8" data-name="Path 10691" transform="translate(-93.061 -128.169)"/>
        <path id="Path_10692" d="M236.735 448.66s-13.823 8.689-21.975 7.275c0 0 19.02 3.784 21.975 1.777l-8.507-2.37s9.455-4.992 8.507-6.682z" class="cls-8" data-name="Path 10692" transform="translate(-93.351 -128.621)"/>
        <path id="Path_10693" d="M211.02 306.747c-4-.79-8.428-.316-11.627 2.2-2.37 1.864-3.949 4.739-6.611 6.1a38.9 38.9 0 0 1-4.321 1.524 12.464 12.464 0 0 0-7.607 13.428c.419 2.37 1.517 4.5 2.054 6.809.964 4.123.118 8.444-.932 12.543a131.988 131.988 0 0 1-13.152 32.567 3.413 3.413 0 0 0-.656 2.188 3.161 3.161 0 0 0 .79 1.4c5.458 6.319 14.344 8.475 22.686 8.76 3.073.1 6.319 0 8.989-1.493a13.585 13.585 0 0 0 4.384-4.02 21.328 21.328 0 0 0 4.092-13.752c-.229-3.949-1.58-7.97-.561-11.8a3.16 3.16 0 0 1 .711-1.445c.9-.916 2.37-.679 3.665-.829 3.468-.4 5.711-4.06 6.122-7.52s-.458-6.959-.474-10.442a21.873 21.873 0 0 1 4.115-12.859c1.153-1.58 2.63-3.159 3.017-5.142.49-2.488-.956-4.321-2.2-6.319-1.935-3.065-2.883-6.643-5.829-8.981a15.733 15.733 0 0 0-6.655-2.917z" class="cls-8" data-name="Path 10693" transform="translate(-83.561 -98.729)"/>
        <path id="Path_10694" d="M209.83 305.547c-3.989-.79-8.428-.316-11.627 2.2-2.37 1.856-3.949 4.739-6.611 6.1a38.145 38.145 0 0 1-4.313 1.517 12.472 12.472 0 0 0-7.615 13.428c.419 2.37 1.517 4.5 2.062 6.817.964 4.123.111 8.436-.932 12.536a132.065 132.065 0 0 1-13.128 32.567 3.341 3.341 0 0 0-.648 2.18 3.04 3.04 0 0 0 .79 1.4c5.466 6.319 14.344 8.476 22.685 8.76 3.073.11 6.319 0 8.989-1.485a13.617 13.617 0 0 0 4.384-4.028 21.327 21.327 0 0 0 4.068-13.72c-.229-3.949-1.58-7.97-.553-11.809a3.16 3.16 0 0 1 .7-1.446c.9-.916 2.37-.679 3.673-.79 3.468-.4 5.7-4.06 6.114-7.528s-.45-6.951-.474-10.442a21.873 21.873 0 0 1 4.107-12.9c1.153-1.58 2.622-3.159 3.009-5.15.49-2.488-.948-4.313-2.2-6.319-1.935-3.065-2.883-6.643-5.837-8.973a15.657 15.657 0 0 0-6.643-2.915z" class="cls-11" data-name="Path 10694" transform="translate(-83.319 -98.477)"/>
        <path id="Path_10695" d="M214.76 492.62s3.033 14.171 8.073 18.033z" class="cls-8" data-name="Path 10695" transform="translate(-93.351 -137.857)"/>
        <g id="Group_10546" class="cls-4" data-name="Group 10546" transform="translate(83.675 221.106)">
            <path id="Path_10696" d="M184.029 338.631a31.351 31.351 0 0 0-.529-1.651c.158.553.34 1.106.529 1.651z" data-name="Path 10696" transform="translate(-170.458 -326.261)"/>
            <path id="Path_10697" d="M223.656 323.41a5.128 5.128 0 0 1-.063 1.335c-.395 2-1.864 3.555-3.017 5.15a21.808 21.808 0 0 0-4.115 12.851c0 3.491.877 6.975.466 10.442s-2.646 7.109-6.114 7.528c-1.28.15-2.773-.095-3.665.79a3.16 3.16 0 0 0-.711 1.445c-1 3.839.332 7.852.553 11.809a21.327 21.327 0 0 1-4.06 13.72 13.7 13.7 0 0 1-4.384 4.029c-2.709 1.461-5.916 1.58-9 1.485-8.2-.276-16.919-2.37-22.4-8.46a2.164 2.164 0 0 0-.134 1.137 3.041 3.041 0 0 0 .79 1.4c5.466 6.319 14.344 8.476 22.686 8.76 3.073.111 6.319 0 8.989-1.485a13.7 13.7 0 0 0 4.384-4.028 21.327 21.327 0 0 0 4.068-13.72c-.229-3.95-1.58-7.97-.553-11.809a3.159 3.159 0 0 1 .7-1.445c.9-.916 2.37-.679 3.673-.79 3.468-.4 5.7-4.06 6.114-7.528s-.45-6.951-.474-10.442a21.873 21.873 0 0 1 4.107-12.852c1.153-1.58 2.622-3.159 3.009-5.15a5.853 5.853 0 0 0-.849-4.172z" data-name="Path 10697" transform="translate(-166.989 -323.41)"/>
        </g>
        <path id="Path_10698" d="M575.2 807.459s-30.055-1.817-26.509 19.242a5.138 5.138 0 0 0 2.67 5.411s.055-1.58 3.081-1.027a13.823 13.823 0 0 0 3.262.158 6.817 6.817 0 0 0 4-1.651s8.444-3.491 11.73-17.3c0 0 2.433-3.01 2.37-3.783l-5.071 2.164s1.73 3.657.363 6.7c0 0-.158-6.564-1.138-6.406-.2 0-2.63 1.264-2.63 1.264s2.978 6.374.727 11c0 0 .853-7.852-1.659-10.537l-3.57 2.077s3.484 6.588 1.122 11.959c0 0 .608-8.239-1.872-11.445l-3.239 2.52s3.278 6.485 1.28 10.94c0 0-.261-9.589-1.983-10.269 0 0-2.828 2.488-3.254 3.515 0 0 2.235 4.739.845 7.2 0 0-.853-6.39-1.58-6.414 0 0-2.82 4.234-3.112 7.109a15.386 15.386 0 0 1 2.425-7.543 8.459 8.459 0 0 0-4.313 2.235s.434-2.994 5.008-3.254c0 0 2.37-3.207 2.954-3.4 0 0-4.55-.379-7.306.845 0 0 2.425-2.828 8.144-1.58l3.16-2.606s-5.987-.79-8.531.087c0 0 2.923-2.5 9.392-.679l3.475-2.085s-5.1-1.1-8.144-.7c0 0 3.207-1.73 9.163.15l2.488-1.122s-3.744-.735-4.834-.845-1.153-.419-1.153-.419a12.924 12.924 0 0 1 7.022.79s5.305-1.969 5.217-2.301z" class="cls-6" data-name="Path 10698" transform="translate(-163.453 -204.001)"/>
        <ellipse id="Ellipse_3324" cx="21.272" cy="3.594" class="cls-2" data-name="Ellipse 3324" rx="21.272" ry="3.594" transform="translate(369.773 626.358)"/>
        <path id="Path_10699" d="M873.313 774.86s-30.016-1.809-26.509 19.25a5.137 5.137 0 0 0 2.67 5.411s.055-1.58 3.081-1.035a13.928 13.928 0 0 0 3.27.158 6.745 6.745 0 0 0 3.989-1.651s8.451-3.483 11.729-17.291c0 0 2.433-3.017 2.37-3.791l-5.1 2.212s1.73 3.657.371 6.7c0 0-.166-6.572-1.137-6.414-.2 0-2.638 1.264-2.638 1.264s2.978 6.374.735 11.011c0 0 .853-7.851-1.667-10.545l-3.57 2.085s3.483 6.58 1.121 11.951c0 0 .609-8.239-1.872-11.445l-3.23 2.5s3.27 6.493 1.272 10.948c0 0-.261-9.6-1.975-10.316 0 0-2.828 2.5-3.262 3.523 0 0 2.243 4.739.853 7.188 0 0-.853-6.382-1.58-6.414 0 0-2.82 4.234-3.112 7.109a15.364 15.364 0 0 1 2.433-7.544 8.5 8.5 0 0 0-4.321 2.236s.442-2.986 5.016-3.254c0 0 2.37-3.207 2.954-3.4 0 0-4.55-.379-7.314.845 0 0 2.433-2.828 8.144-1.54L859.19 782s-6-.79-8.531.087c0 0 2.923-2.5 9.392-.679l3.476-2.077s-5.111-1.106-8.152-.7c0 0 3.207-1.73 9.171.142l2.488-1.114s-3.744-.735-4.842-.853-1.153-.418-1.153-.418a12.947 12.947 0 0 1 7.03.79s5.338-1.987 5.244-2.318z" class="cls-6" data-name="Path 10699" transform="translate(-226.091 -197.151)"/>
        <ellipse id="Ellipse_3325" cx="21.272" cy="3.594" class="cls-2" data-name="Ellipse 3325" rx="21.272" ry="3.594" transform="translate(605.246 600.607)"/>
        <ellipse id="Ellipse_3326" cx="61.256" cy="10.047" class="cls-2" data-name="Ellipse 3326" rx="61.256" ry="10.047" transform="translate(608.643 335)"/>
        <path id="Path_10700" d="M956.826 199.741c2.5-8.4 0-16.793 0-16.793v-7.9s2.86-15.49-9.873-25.426l-8.452-7.449s-4.739-4.06-6.106-4.321a6.2 6.2 0 0 0-.79-.118l-.252-.142a25.428 25.428 0 0 1-1.853-3.892 3.61 3.61 0 0 0 3.01-1.027 3.952 3.952 0 0 0 .711-1.185c.49-1.1.569-2.425.987-3.594a8.386 8.386 0 0 1 1.58-2.583c-.087.142-.174.276-.253.419 1.193-1.485 2.757-2.765 3.871-4.336a9.521 9.521 0 0 0 .616-.964l-.166.2c1.58-2.5 2.03-5.529 2.48-8.436a7.615 7.615 0 0 0 .047-3.017 10.069 10.069 0 0 0-.845-1.912c-1.833-3.791-1.793-8.547-4.74-11.572-2.2-2.267-5.529-2.962-8.689-3.349s-6.453-.608-9.155-2.259a9.921 9.921 0 0 0-2.48-1.367 2.046 2.046 0 0 0-2.441.908 1.579 1.579 0 0 1-.324.656 1.051 1.051 0 0 1-.94.055l-4.186-1.122.047.213h-.1l.15.664a.369.369 0 0 1 .4.229l-.672 1.035a10.373 10.373 0 0 1-3.784-.79 1.8 1.8 0 0 0 0 .205h-.055c-.079 1.185 1.264 1.951 1.675 3.065a2.32 2.32 0 0 1 0 1.5 3.413 3.413 0 0 1-.79 1.2c-1.493 1.469-3.388 1.177-5.1 2.109a1.091 1.091 0 0 0-.624.687.53.53 0 0 0-.055.379.886.886 0 0 0 .348.434 7.914 7.914 0 0 0 1.627 1.011l-.49.474a18.752 18.752 0 0 0 6.478 30.577c.063.324.11.656.158 1.011v.095l.047.45-5.648 2.37a4.494 4.494 0 0 1-4.044-2.6c-1.311-2.717-5.948 0-5.948 0s-14.163-1.066-19.4 1.54c0 0-8.452-3.547-9.637-3.784s-2.978-1.185-3.815-.948-1.9-1.58-2.5-1.422-.79-1.177-2.733-1.651-2.623.118-4.74-2.014-19.518-10.521-19.518-10.521l-7.852-6.39-8.333-6.619-.15.276c-.047-.2-.1-.4-.158-.616a79.022 79.022 0 0 0-3.088-9.716c-.537-1.28-.79-2.9-1.493-2.046-.442.513-1.2-.608-2.37-1.367a1.967 1.967 0 0 0-2.938.853c-6.485 10.166-8.808 10.9-5.048 14.621 3.342 3.318 5.569 6.248 8.3 7.109l.324.1a.458.458 0 0 1-.182 0l15.8 18.918s11.422 9.937 19.281 13.128 7.259 4.139 7.259 4.139 23.8 12.062 27.488 11.848 2.978 24.716 1.429 28.736-4.044 33.112-4.044 33.112-2.37 6.145.118 10.4c0 0 .553 8.152.055 10.1-2.172 3.341-5.26 9.013-5.766 14.85a8.442 8.442 0 0 1-.095.9 2.044 2.044 0 0 1-.561.458s.205-.047.529-.158a30.011 30.011 0 0 1-1.58 7.109 28.967 28.967 0 0 0-1.943 10.269v18.791l-1.57 11.662s-1.9 8.823 0 10.877a5 5 0 0 1 1.043 3.626 6.712 6.712 0 0 0 1.216 4.226 3.207 3.207 0 0 1 .79 2.717c-.632 2.046.932 23.8.932 23.8s-.458 6-1.09 6.319 1.058 6.888 1.058 6.888-6.43 5.363-4.794 8.207l1.643 2.52-.435.427-.268.269a2.505 2.505 0 0 0-1.635-.308 61.276 61.276 0 0 1-6.469 5.758c-2.9 2.093-10.79 5.126-10.79 5.126l-6.224.506h-.119s-2.978-.276-1.311 4.336 16.588 3.16 16.588 3.16l8.689-1.374s15.545.071 19.992-.908c1.864-.419 2.306-1.406 2.188-2.417l-.047-.047a6.212 6.212 0 0 0-1.272-2.615 1.285 1.285 0 0 0-.111-.134l.284-3.16c6.6-3.8-1.864-11.28-1.864-11.28a75.407 75.407 0 0 1 4.384-8.349c1.493-2.03 1.485-32.164 1.485-32.164s.79-10.885-1.272-13.428a4.542 4.542 0 0 1 2.219-4.1c1.469-1 5.908-14.818 9.392-26.288l2.2 13.515s-.474 6.461.956 8.357a3.214 3.214 0 0 1 .584 2.512 11.178 11.178 0 0 0 .324 5.474 3.538 3.538 0 0 0 1.146 1.943c1.272.632 1.351 2.883 1.825 3.357s3.412-.671 3.57 1.058a38.521 38.521 0 0 1 0 4.573l.956 28.065s-1.58 2.37-1.9 8.515a11.006 11.006 0 0 1-1.145 5.024 2.567 2.567 0 0 0 .237 3.017l.276.316-1.177.908a2.567 2.567 0 0 0-.727 3.16 2.535 2.535 0 0 0-.735 2.725 3.112 3.112 0 0 0 .205.442 4.446 4.446 0 0 0-2.37 1.169 19.43 19.43 0 0 1-4.187 4.218 78.9 78.9 0 0 0-6.682 5.719 9.589 9.589 0 0 1-3.9 3.16 6.315 6.315 0 0 1-1.177.347c-3.16.64-2.141 3.91.395 4.423s10.948 3.112 17.5 1.58a6.114 6.114 0 0 0 4.794-.664 66.035 66.035 0 0 1 9.344-3.159s3.571 0 4.044-1.422a5.438 5.438 0 0 0 .206-1.382l.1-.095-.095-.087a18.634 18.634 0 0 0-.245-3.16 18.45 18.45 0 0 0-.284-1.414c-.308-1.185-.869-2.709-1.114-3.357a1.214 1.214 0 0 0 .111-.166c1.358-2.3-.9-7.9-.9-7.9a15.1 15.1 0 0 1 2.693-3.16c1.272-.94 4.605-25.537 4.605-25.537s-.158-6.319 1.58-9.147-2.37-20.024-2.37-20.024-1.745-3.949-1.106-5.363-.64-6.619-.64-6.619V302.1a6.814 6.814 0 0 0-.364-2.18c-.49-1.461-1.216-4.265-.427-6.319 1.114-2.836 3.649-20.34 3.649-20.34s-1.983-7.717.916-13.863a13.25 13.25 0 0 1 .79-1.43c2.149-3.381 1.509-9.384.45-14.218-.166-.75-.34-1.469-.514-2.156-.079-.292-.158-.569-.229-.845l.34-.142a10.658 10.658 0 0 1 .1-1.248 8.689 8.689 0 0 0 5.727-3.949s7.259-8.16 13.688-11.588 6.9-8.4 6.9-8.4c-.956-1.659 1.7-8.4 1.7-8.4zm-25.277-61.912zm4.368 72.788l-6.872 7.97a.181.181 0 0 1 0-.047c-1.785-2.48 1.667-8.041 1.667-8.041l5.679-12.725a7.7 7.7 0 0 1-.742 3.76c-1.58 2.133 2.851 5.679 2.851 5.679-2.378-.024-2.615 3.4-2.615 3.4z" class="cls-12" data-name="Path 10700" transform="translate(-215.608 -52.821)"/>
        <path id="Path_10701" d="M815.356 106.843l-3.744 7.275a14.493 14.493 0 0 1-3.491-.727 13.246 13.246 0 0 1-8.2-7.109c-3.349-7.409 2.2-12.2 4.779-13.6s4.976-3.025 6.911 1.58a80.107 80.107 0 0 1 3.049 9.652c.428 1.752.696 2.929.696 2.929z" class="cls-13" data-name="Path 10701" transform="translate(-216.081 -53.517)"/>
        <path id="Path_10702" d="M962.791 152.792l-5.987 8.934s-28.325 13.507-22.907-2.37c2.37-6.99 2.662-12.109 2.236-15.648v-.095c-.553-4.423-2.22-6.319-2.22-6.319s27.607-14.123 23.5-4.463a13.428 13.428 0 0 0-.98 6.359 21.661 21.661 0 0 0 2.978 8.823 29.243 29.243 0 0 0 3.38 4.779z" class="cls-13" data-name="Path 10702" transform="translate(-244.306 -61.551)"/>
        <path id="Path_10703" d="M943.005 360.575s4.076 17.077 2.37 19.9-1.58 9.084-1.58 9.084-3.295 24.441-4.549 25.384a15.008 15.008 0 0 0-2.662 3.16s2.235 5.529.892 7.82a1.855 1.855 0 0 1-.892.79c-2.1.885-9.858-3.041-14.273-5.45a2.433 2.433 0 0 1-1.169-1.4 2.488 2.488 0 0 1 .719-2.7 2.575 2.575 0 0 1 .719-3.16l1.161-.9-.269-.316a2.568 2.568 0 0 1-.237-3 11.075 11.075 0 0 0 1.13-4.984c.316-6.114 1.88-8.46 1.88-8.46l-.94-27.891a40.039 40.039 0 0 0 0-4.542c-.158-1.722-3.057-.585-3.523-1.058s-.553-2.7-1.8-3.333a3.505 3.505 0 0 1-1.137-1.927 11.234 11.234 0 0 1-.324-5.442 3.208 3.208 0 0 0-.576-2.5c-1.414-1.88-.94-8.3-.94-8.3l-2.165-13.428c-3.444 11.4-7.828 25.126-9.273 26.122a4.519 4.519 0 0 0-2.2 4.076c2.038 2.5 1.256 13.318 1.256 13.318s0 29.921-1.469 31.959a77.885 77.885 0 0 0-4.329 8.3s8.4 7.472 1.793 11.24l-.071.04c-6.738 3.76-20.679-6.73-20.679-6.73l1.454-1.453.427-.427-1.58-2.512c-1.619-2.82 4.74-8.144 4.74-8.144s-1.691-6.58-1.067-6.9 1.067-6.272 1.067-6.272-1.541-21.619-.916-23.649a3.161 3.161 0 0 0-.743-2.7 6.745 6.745 0 0 1-1.2-4.194 4.991 4.991 0 0 0-1.027-3.6c-1.88-2.038 0-10.814 0-10.814l1.58-11.6V315.52a29.229 29.229 0 0 1 1.9-10.363 31.263 31.263 0 0 0 1.706-8.341c.513-5.94 3.7-11.714 5.853-15.008 1.137-1.738 1.983-2.78 1.983-2.78l50.134-1.967s.79 2.236 1.58 5.34c.174.679.348 1.39.506 2.141 1.05 4.818 1.682 10.782-.443 14.147a11.144 11.144 0 0 0-.79 1.414c-2.867 6.106-.908 13.776-.908 13.776s-2.5 17.378-3.6 20.213c-.79 2-.063 4.787.427 6.24a6.953 6.953 0 0 1 .355 2.164v6.169s1.256 5.166.632 6.58 1.067 5.33 1.067 5.33z" class="cls-14" data-name="Path 10703" transform="translate(-233.099 -92.565)"/>
        <path id="Path_10704" d="M961.32 301.237a12.855 12.855 0 0 0-.79 1.414l-2.82-.158c.269-1.453-1.651-15.079-1.651-15.079l5.687-.324c1.059 4.85 1.699 10.821-.426 14.147z" class="cls-8" data-name="Path 10704" transform="translate(-249.107 -94.673)"/>
        <path id="Path_10705" d="M961.911 300.687a11.113 11.113 0 0 0-.79 1.414l-2.828-.158c.276-1.453-1.643-15.087-1.643-15.087l5.679-.316c1.071 4.818 1.707 10.782-.418 14.147z" class="cls-14" data-name="Path 10705" transform="translate(-249.231 -94.557)"/>
        <path id="Path_10706" d="M961.911 300.687a11.113 11.113 0 0 0-.79 1.414l-2.828-.158c.276-1.453-1.643-15.087-1.643-15.087l5.679-.316c1.071 4.818 1.707 10.782-.418 14.147z" class="cls-15" data-name="Path 10706" transform="translate(-249.231 -94.557)"/>
        <path id="Path_10707" d="M948.455 463.865a1.857 1.857 0 0 1-.893.79c-2.1.885-9.857-3.041-14.273-5.45a2.433 2.433 0 0 1-1.169-1.4c2.512-.458 4.163 2.37 4.163 2.37a3.7 3.7 0 0 1 5.166 1.256c2.156 3.16 6.777 1.833 6.777 1.833s.094.214.229.601z" class="cls-8" data-name="Path 10707" transform="translate(-244.077 -130.532)"/>
        <path id="Path_10708" d="M944.482 473.592c-.474 1.406-4 1.406-4 1.406a75.061 75.061 0 0 0-9.131 3.215 6.241 6.241 0 0 1-4.739.664c-6.469 1.493-14.771-1.09-17.275-1.58s-3.491-3.76-.4-4.384a6.192 6.192 0 0 0 1.161-.355 9.433 9.433 0 0 0 3.855-3.16 79.873 79.873 0 0 1 6.6-5.687 19.093 19.093 0 0 0 4.139-4.186c3.681-3.254 6.319 1.217 6.319 1.217A3.7 3.7 0 0 1 936.18 462c2.156 3.16 6.777 1.833 6.777 1.833s.79 2.117 1.216 3.641c.095.387.2.877.284 1.414a12.354 12.354 0 0 1 .025 4.704z" class="cls-16" data-name="Path 10708" transform="translate(-238.802 -130.654)"/>
        <circle id="Ellipse_3327" cx=".434" cy=".434" r=".434" class="cls-17" data-name="Ellipse 3327" transform="translate(694.472 332.164)"/>
        <circle id="Ellipse_3328" cx=".434" cy=".434" r=".434" class="cls-17" data-name="Ellipse 3328" transform="translate(690.791 335.608)"/>
        <circle id="Ellipse_3329" cx=".434" cy=".434" r=".434" class="cls-17" data-name="Ellipse 3329" transform="translate(687.047 338.704)"/>
        <circle id="Ellipse_3330" cx=".434" cy=".434" r=".434" class="cls-17" data-name="Ellipse 3330" transform="translate(688.982 337.322)"/>
        <circle id="Ellipse_3331" cx=".434" cy=".434" r=".434" class="cls-17" data-name="Ellipse 3331" transform="translate(692.711 333.776)"/>
        <path id="Path_10709" d="M944.482 476.4c-.474 1.406-4 1.406-4 1.406a75.053 75.053 0 0 0-9.131 3.215 6.241 6.241 0 0 1-4.739.664c-6.469 1.493-14.771-1.09-17.275-1.58s-3.491-3.76-.4-4.384a6.182 6.182 0 0 0 1.161-.355 30.019 30.019 0 0 0 8.476 1.58c6.382.269 11.437 0 11.437 0l6.461-2.077a10.808 10.808 0 0 1 4-1.453 10.271 10.271 0 0 0 3.949-1.722 12.35 12.35 0 0 1 .061 4.706z" class="cls-18" data-name="Path 10709" transform="translate(-238.802 -133.459)"/>
        <path id="Path_10710" d="M933.8 481.217a5.337 5.337 0 0 1-1.074-.111l.095-.458a6.785 6.785 0 0 0 3.87-.537 18.576 18.576 0 0 0 1.714-.79 19.9 19.9 0 0 1 2.038-.893l.64-.221c.355-.119.711-.237 1.051-.387.2-.079.387-.174.576-.261a6.42 6.42 0 0 1 1.454-.553 6.726 6.726 0 0 1 .79-.1 6.69 6.69 0 0 0 .711-.087 6.171 6.171 0 0 0 1.358-.506 6.6 6.6 0 0 1 1.461-.537l.348-.063a1.667 1.667 0 0 0 1.011-.371l.34.324a2.109 2.109 0 0 1-1.279.514l-.324.055a6.171 6.171 0 0 0-1.359.505 6.61 6.61 0 0 1-1.461.537 5.209 5.209 0 0 1-.79.095 6.944 6.944 0 0 0-.735.095 5.974 5.974 0 0 0-1.343.521l-.592.268c-.364.15-.727.277-1.09.4l-.624.221c-.679.253-1.351.569-2.006.869s-1.146.545-1.738.79a8.354 8.354 0 0 1-3.042.681z" class="cls-19" data-name="Path 10710" transform="translate(-244.206 -134.226)"/>
        <path id="Path_10711" d="M936 382.824s3.255-4.739 8.815-4.66a30.181 30.181 0 0 0 7.946-.624s-3.562 2.109-6.027 2.37S936 382.824 936 382.824z" class="cls-8" data-name="Path 10711" transform="translate(-244.893 -113.677)"/>
        <path id="Path_10712" d="M938.38 384.994s2.938-2.038 4.621-2.117 3.16-.237 3.16-.237a8.923 8.923 0 0 1-2.583 1.256c-1.438.395-5.198 1.098-5.198 1.098z" class="cls-8" data-name="Path 10712" transform="translate(-245.393 -114.749)"/>
        <path id="Path_10713" d="M939.17 387.4s4.431.355 4.471 1.532" class="cls-8" data-name="Path 10713" transform="translate(-245.559 -115.749)"/>
        <path id="Path_10714" d="M887 301.576c.229.039 4.178-4.115 4.455-5.758a4.029 4.029 0 0 1 1.722-2.528s2.552 1.019.277 4.139a12.653 12.653 0 0 1-6.454 4.147z" class="cls-8" data-name="Path 10714" transform="translate(-234.597 -95.975)"/>
        <path id="Path_10715" d="M957.569 132.772c-.9 2.133-1.7 2.291-1.524 4.36a15.707 15.707 0 0 1-3.586 2.82c-2.8 1.667-5.853 4.921-9.344 4.921a18.518 18.518 0 0 1-6.824-1.288c-.553-4.423-2.22-6.319-2.22-6.319s27.59-14.154 23.498-4.494z" class="cls-8" data-name="Path 10715" transform="translate(-244.487 -61.54)"/>
        <path id="Path_10716" d="M959.232 119.181a18.681 18.681 0 1 1-18.681-18.681 18.681 18.681 0 0 1 18.681 18.681z" class="cls-13" data-name="Path 10716" transform="translate(-241.924 -55.468)"/>
        <path id="Path_10717" d="M962.791 156.584l-5.987 8.934s-28.325 13.507-22.907-2.37c2.37-6.991 2.662-12.109 2.236-15.648h.047a14.823 14.823 0 0 1 .561 3.6c.087 2.433.15 5.529 6.2 6.54 10.087 1.7 15.506-4.613 16.454-5.853a29.214 29.214 0 0 0 3.396 4.797z" class="cls-8" data-name="Path 10717" transform="translate(-244.306 -65.343)"/>
        <path id="Path_10718" d="M817.729 110.2l-3.744 7.275a14.491 14.491 0 0 1-3.491-.727l-.324-.387c1.532.585 6.7-9.171 6.7-9.171l.166.134c.424 1.699.693 2.876.693 2.876z" class="cls-8" data-name="Path 10718" transform="translate(-218.455 -56.873)"/>
        <path id="Path_10719" d="M948.881 282.414c-12.093 5.253-53.941.79-53.941.79a5.288 5.288 0 0 0 .213-1.366c1.138-1.738 1.983-2.78 1.983-2.78l50.134-1.967s.814 2.219 1.611 5.323z" class="cls-8" data-name="Path 10719" transform="translate(-236.266 -92.571)"/>
        <path id="Path_10720" d="M910.492 139.591l-5.576 2.37a4.455 4.455 0 0 1-4-2.591c-1.288-2.7-5.869 0-5.869 0s-13.989-1.058-19.155 1.532c0 0-8.341-3.531-9.479-3.76s-2.938-1.177-3.76-.94-1.88-1.532-2.464-1.414-.83-1.177-2.709-1.643-2.583.118-4.7-2-19.265-10.458-19.265-10.458l-7.757-6.319-8.223-6.58s-5.174 9.747-6.7 9.163l15.624 18.8s11.28 9.874 19.036 13.041 7.164 4.115 7.164 4.115 23.507 11.983 27.148 11.754 2.938 24.558 1.406 28.554-3.989 32.9-3.989 32.9-2.37 6.106.111 10.34c0 0 .592 8.689 0 10.221 0 0 42.109 4.5 54.052-.79 0 0 1.761-19.5 0-21.975s1.651-7.986 1.651-7.986l7.465-16.84 18.309-18.46s2.82-15.395-9.747-25.276l-8.349-7.4s-4.668-4.036-6.027-4.289-.861 0-.861 0-5.45 7.9-16.588 6.051c-6.051-1.019-6.114-4.1-6.2-6.54a14.82 14.82 0 0 0-.548-3.58z" class="cls-20" data-name="Path 10720" transform="translate(-218.595 -56.999)"/>
        <path id="Path_10721" d="M957.8 228.13s-25.853 1.058-31.019 9.171c0 0 6.7-3.16 12.686-2.235s18.333-6.936 18.333-6.936z" class="cls-8" data-name="Path 10721" transform="translate(-242.955 -82.284)"/>
        <path id="Path_10722" d="M929.9 262.439s12.219.79 14.81-1.761 2.591-4.107 2.591-4.107z" class="cls-8" data-name="Path 10722" transform="translate(-243.611 -88.26)"/>
        <path id="Path_10723" d="M968.107 196.6s-10.34 12.22 2.235 17.5z" class="cls-8" data-name="Path 10723" transform="translate(-250.799 -75.659)"/>
        <path id="Path_10724" d="M891.67 166.7s3.76 7.67 5.64 8.183z" class="cls-8" data-name="Path 10724" transform="translate(-235.578 -69.377)"/>
        <path id="Path_10725" d="M875.61 162.53s9.4 8.46 11.161 9.281c0 0-9.755-9.281-11.161-9.281z" class="cls-8" data-name="Path 10725" transform="translate(-232.204 -68.501)"/>
        <path id="Path_10726" d="M921.689 152.27s-9.052 13.507-3.16 21.738c-.047 0-3.301-9.755 3.16-21.738z" class="cls-8" data-name="Path 10726" transform="translate(-240.803 -66.345)"/>
        <path id="Path_10727" d="M944.136 279.84l-2.764 2.6-.387.363-3.2 3.025c-.237.174-.458.348-.687.506-13.033 9.344-15.648-4.85-15.648-4.85s-5.758 3.76-6.579.7 13.428-7.4 15.505-7.164a2.741 2.741 0 0 0 .569 0 8.93 8.93 0 0 0 2.923-1.035c.213-.111.426-.221.632-.34a23.415 23.415 0 0 0 2.109-1.327z" class="cls-13" data-name="Path 10727" transform="translate(-240.446 -91.569)"/>
        <path id="Path_10728" d="M961.248 119.18a18.682 18.682 0 0 1-9.134 16.06 10.9 10.9 0 0 1-.677-1.36c-.671-1.58-1.082-3.231-1.753-4.795a14.963 14.963 0 0 0-3.16-4.573 2 2 0 0 0-.79-.577 2.266 2.266 0 0 0-1.714.474 7.756 7.756 0 0 1-2.607 1.145 2.773 2.773 0 0 1-2.615-.79 3.921 3.921 0 0 1-.41-3.262c.45-2.433 1.216-4.818 1.216-7.291s-.932-5.142-3.081-6.366c-1.9-1.074-4.25-.79-6.359-1.382a6.85 6.85 0 0 1-.956-.332 18.689 18.689 0 0 1 32.062 13.049z" class="cls-8" data-name="Path 10728" transform="translate(-243.466 -55.467)"/>
        <path id="Path_10729" d="M927.413 101.226c-.34.182-.711.506-.608.885a.868.868 0 0 0 .34.434 8.088 8.088 0 0 0 2.954 1.517c2.109.569 4.471.3 6.366 1.382 2.141 1.224 3.088 3.886 3.081 6.359s-.79 4.866-1.224 7.291a3.95 3.95 0 0 0 .419 3.27 2.788 2.788 0 0 0 2.615.79 7.7 7.7 0 0 0 2.6-1.137 2.252 2.252 0 0 1 1.715-.474 2.086 2.086 0 0 1 .837.569 14.836 14.836 0 0 1 3.159 4.581c.679 1.58 1.09 3.223 1.754 4.795a7.734 7.734 0 0 0 3.16 3.9 3.949 3.949 0 0 0 4.739-.5c1.09-1.2 1.059-3.017 1.58-4.558.932-2.662 3.539-4.336 5.166-6.635 1.833-2.583 2.37-5.845 2.836-8.973a7.527 7.527 0 0 0 .047-3 10.828 10.828 0 0 0-.829-1.9c-1.817-3.76-1.777-8.491-4.676-11.5-2.18-2.251-5.481-2.938-8.594-3.317s-6.375-.616-9.044-2.251a9.946 9.946 0 0 0-2.449-1.359 2.014 2.014 0 0 0-2.409.9 1.577 1.577 0 0 1-.324.656 1.027 1.027 0 0 1-.916.055l-4.143-1.106.474 2.085a10.331 10.331 0 0 1-4.392-.79c-.079 1.177 1.248 1.943 1.659 3.041a2.813 2.813 0 0 1-.79 2.867c-1.533 1.491-3.416 1.197-5.103 2.123z" class="cls-21" data-name="Path 10729" transform="translate(-242.957 -53.532)"/>
        <path id="Path_10730" d="M900.786 457.634l-.166 1.88-.071.04c-6.738 3.76-20.679-6.73-20.679-6.73l1.454-1.453a2.527 2.527 0 0 1 .632 1.959l2.852.158 3.4 3.681s9.218 1.066 11.714.466z" class="cls-8" data-name="Path 10730" transform="translate(-233.099 -129.19)"/>
        <path id="Path_10731" d="M892.828 467.85c-4.384.971-19.747.9-19.747.9l-8.578 1.367s-14.763 1.414-16.406-3.16 1.288-4.3 1.288-4.3h.111l6.145-.5s7.8-3.017 10.656-5.095a61.458 61.458 0 0 0 6.382-5.719s2.567-.5 2.52 2.472l2.851.158 3.4 3.673s9.218 1.074 11.714.474h.861l-.4 4.542.111.142c.554.702 3.01 4.17-.908 5.046z" class="cls-16" data-name="Path 10731" transform="translate(-226.318 -129.177)"/>
        <circle id="Ellipse_3332" cx=".434" cy=".434" r=".434" class="cls-17" data-name="Ellipse 3332" transform="translate(650.167 326.825)"/>
        <circle id="Ellipse_3333" cx=".434" cy=".434" r=".434" class="cls-17" data-name="Ellipse 3333" transform="translate(639.125 331.619)"/>
        <circle id="Ellipse_3334" cx=".434" cy=".434" r=".434" class="cls-17" data-name="Ellipse 3334" transform="translate(633.438 333.349)"/>
        <circle id="Ellipse_3335" cx=".434" cy=".434" r=".434" class="cls-17" data-name="Ellipse 3335" transform="translate(642.023 330.703)"/>
        <circle id="Ellipse_3336" cx=".434" cy=".434" r=".434" class="cls-17" data-name="Ellipse 3336" transform="translate(636.273 332.488)"/>
        <circle id="Ellipse_3337" cx=".434" cy=".434" r=".434" class="cls-17" data-name="Ellipse 3337" transform="translate(644.954 329.344)"/>
        <circle id="Ellipse_3338" cx=".434" cy=".434" r=".434" class="cls-17" data-name="Ellipse 3338" transform="translate(647.853 328.088)"/>
        <path id="Path_10732" d="M892.828 470.867c-4.384.972-19.747.9-19.747.9l-8.578 1.367s-14.763 1.414-16.406-3.16 1.288-4.3 1.288-4.3h.111c.94 1.216 2.828 2.607 6.541 2.67l10.616.434 11-.79s10.268-.316 11.982-.663a24.918 24.918 0 0 0 4.107-1.509c.548.706 3.004 4.174-.914 5.051z" class="cls-18" data-name="Path 10732" transform="translate(-226.318 -132.194)"/>
        <path id="Path_10733" d="M869.537 472.751a6.928 6.928 0 0 1-1.738-.213l.158-.427a8.521 8.521 0 0 0 4.376-.2c.521-.134 1.035-.284 1.58-.442a17.911 17.911 0 0 1 7.623-.861h.34a72.153 72.153 0 0 0 14.1-.632 5.247 5.247 0 0 0 3.018-1.208l.339.332a5.718 5.718 0 0 1-3.278 1.343 73.234 73.234 0 0 1-14.218.632h-.337a23.07 23.07 0 0 0-4.668.134 24.236 24.236 0 0 0-2.8.7c-.522.158-1.043.316-1.58.45a11.747 11.747 0 0 1-2.915.387z" class="cls-19" data-name="Path 10733" transform="translate(-230.563 -132.846)"/>
        <path id="Path_10734" d="M949.366 279.84l-2.764 2.6-6.872-8.792a23.377 23.377 0 0 0 2.109-1.327z" class="cls-8" data-name="Path 10734" transform="translate(-245.677 -91.569)"/>
        <path id="Path_10735" d="M980.37 190.5l5.4 7.52v7.9a32.887 32.887 0 0 1 0 16.69l.277 7.283s-2.622 6.7-1.682 8.341c0 0-.474 4.937-6.817 8.349s-13.515 11.453-13.515 11.453-2.7 5.174-9.984 4l-6.935 2.938-7.986-10.221 10.806-5.877s3.76-5.055 6-4.818l9.163-10.671s.237-3.4 2.583-3.4c0 0-4.344-3.523-2.82-5.64s.237-11.517.237-11.517z" class="cls-20" data-name="Path 10735" transform="translate(-245.55 -74.378)"/>
        <path id="Path_10736" d="M978.55 233.861s12.338-.229 13.863 2.938-10.103-4.699-13.863-2.938z" class="cls-8" data-name="Path 10736" transform="translate(-253.833 -83.434)"/>
        <path id="Path_10737" d="M945.314 282.627a3.237 3.237 0 0 1-.047.616 4.155 4.155 0 0 1-3.886 3.531h-.221a4.147 4.147 0 0 1-4.146-4.147 4.245 4.245 0 0 1 .229-1.351c-1.959-1.58-2.062-4.408-2.014-5.821a8.933 8.933 0 0 0 2.923-1.035 19.443 19.443 0 0 0 2.048 4.18 3.955 3.955 0 0 1 .964-.118 4.146 4.146 0 0 1 4.154 4.147z" class="cls-8" data-name="Path 10737" transform="translate(-244.729 -92.01)"/>
        <path id="Path_10738" d="M938.646 273.26s-2.78.624-2.78 1.129-.624 5.095 2.425 6.975 2.749-2.622 2.749-2.622-2.631-4.037-2.394-5.482z" class="cls-17" data-name="Path 10738" transform="translate(-244.854 -91.767)"/>
        <circle id="Ellipse_3339" cx="4.155" cy="4.155" r="4.155" class="cls-22" data-name="Ellipse 3339" transform="translate(692.75 186.462)"/>
        <circle id="Ellipse_3340" cx="3.562" cy="3.562" r="3.562" class="cls-18" data-name="Ellipse 3340" transform="translate(693.342 187.054)"/>
        <path id="Path_10739" d="M922.843 286.84s8.776 7.283 20.055 2.67v3.523s-7.52 5.166-14.337 2.038-5.718-8.231-5.718-8.231z" class="cls-8" data-name="Path 10739" transform="translate(-242.114 -94.62)"/>
        <path id="Path_10740" d="M922.843 285.65s8.8 7.283 20.055 2.646v3.523s-7.52 5.166-14.337 2.038-5.718-8.207-5.718-8.207z" class="cls-8" data-name="Path 10740" transform="translate(-242.114 -94.37)"/>
        <path id="Path_10741" d="M922.843 285.65s8.8 7.283 20.055 2.646v3.523s-7.52 5.166-14.337 2.038-5.718-8.207-5.718-8.207z" class="cls-14" data-name="Path 10741" transform="translate(-242.114 -94.37)"/>
        <path id="Path_10742" d="M923.143 285.65s8.776 7.283 20.055 2.67v3.523s-7.543 5.142-14.336 2.038-5.719-8.231-5.719-8.231z" class="cls-15" data-name="Path 10742" transform="translate(-242.178 -94.37)"/>
        <path id="Path_10743" d="M888 451.32s11.753 2.156 13.475 2.622-.474 1.3-.474 1.3-10.766-1.924-13.001-3.922z" class="cls-8" data-name="Path 10743" transform="translate(-234.807 -129.179)"/>
        <path id="Path_10744" d="M887.61 441.856c.189 0 7.986-2.2 9.668-5.956" class="cls-8" data-name="Path 10744" transform="translate(-234.725 -125.939)"/>
        <path id="Path_10745" d="M902 386.509s3.16 4.155 5.2 4.036-3.344-4.194-5.2-4.036z" class="cls-8" data-name="Path 10745" transform="translate(-237.749 -115.561)"/>
        <path id="Path_10746" d="M904.22 395.24s1.327 2.938 3.286 2" class="cls-8" data-name="Path 10746" transform="translate(-238.216 -117.396)"/>
        <path id="Path_10747" d="M913.59 313.561l8.333 21.975s1.177-14.139-1.311-18.373a7.338 7.338 0 0 0-7.022-3.602z" class="cls-15" data-name="Path 10747" transform="translate(-240.184 -100.228)"/>
        <g id="Group_10547" class="cls-4" data-name="Group 10547" transform="translate(683.746 38.539)">
            <path id="Path_10748" d="M939.184 92.951l-.071-.316-1.343-.355.15.656a9.625 9.625 0 0 0 1.264.016z" data-name="Path 10748" transform="translate(-929.011 -92.28)"/>
            <path id="Path_10749" d="M934.456 98.591l.142-.126a2.8 2.8 0 0 0 .79-2.859 3.874 3.874 0 0 0-.663-1.066 10.264 10.264 0 0 1-1.936-.569c-.079 1.177 1.248 1.935 1.659 3.041a2.372 2.372 0 0 1 .008 1.579z" data-name="Path 10749" transform="translate(-927.963 -92.635)"/>
            <path id="Path_10750" d="M955.369 136.786a7.762 7.762 0 0 1-3.16-3.9c-.672-1.58-1.074-3.239-1.754-4.795a14.733 14.733 0 0 0-3.159-4.573 2 2 0 0 0-.829-.577 2.242 2.242 0 0 0-1.714.474 7.9 7.9 0 0 1-2.607 1.145 2.82 2.82 0 0 1-2.615-.79 3.92 3.92 0 0 1-.411-3.262c.458-2.433 1.216-4.826 1.225-7.3s-.94-5.134-3.089-6.319c-1.9-1.082-4.25-.79-6.319-1.382a8.026 8.026 0 0 1-2.954-1.517l-.166-.15a5.066 5.066 0 0 0-.514.245c-.34.182-.7.505-.608.877a.941.941 0 0 0 .347.442 8.139 8.139 0 0 0 2.958 1.509c2.109.577 4.463.308 6.359 1.39 2.148 1.216 3.088 3.886 3.088 6.319s-.79 4.866-1.225 7.291a3.931 3.931 0 0 0 .411 3.262 2.781 2.781 0 0 0 2.615.79 7.9 7.9 0 0 0 2.607-1.137 2.284 2.284 0 0 1 1.714-.482 2.079 2.079 0 0 1 .79.577 14.9 14.9 0 0 1 3.159 4.573c.68 1.58 1.083 3.231 1.754 4.795a7.75 7.75 0 0 0 3.16 3.949 4 4 0 0 0 4.739-.5 3.729 3.729 0 0 0 .7-1.177 4.028 4.028 0 0 1-4.502.223z" data-name="Path 10750" transform="translate(-926.681 -94.709)"/>
            <path id="Path_10751" d="M971.54 136.6c1.177-1.485 2.717-2.749 3.823-4.313a11.035 11.035 0 0 0 .608-.964c-1.422 1.806-3.371 3.267-4.431 5.277z" data-name="Path 10751" transform="translate(-936.106 -100.483)"/>
        </g>
        <g id="Group_10549" class="cls-4" data-name="Group 10549" transform="translate(452.814 52.457)">
            <path id="Path_10752" d="M830.978 109.9H644.091a9.8 9.8 0 0 0-9.771 9.763v118.08a9.8 9.8 0 0 0 9.771 9.763h146.6s3.8 20.166-8.689 22.33c0 0 27.946 2.006 23.065-22.33h25.9a9.787 9.787 0 0 0 9.763-9.763v-118.08a9.787 9.787 0 0 0-9.752-9.763z" data-name="Path 10752" transform="translate(-634.32 -109.9)"/>
            <g id="Group_10548" class="cls-5" data-name="Group 10548" transform="translate(27.512 31.343)">
                <rect id="Rectangle_2421" width="151.39" height="9.226" data-name="Rectangle 2421" rx="4.613"/>
                <rect id="Rectangle_2422" width="124.921" height="9.226" data-name="Rectangle 2422" rx="4.613" transform="translate(0 41.232)"/>
                <rect id="Rectangle_2423" width="89.929" height="9.226" data-name="Rectangle 2423" rx="4.613" transform="translate(0 20.616)"/>
            </g>
        </g>
        <path id="Path_10753" d="M834.068 107.83H647.181a9.8 9.8 0 0 0-9.771 9.771v118.08a9.8 9.8 0 0 0 9.771 9.763h146.6s3.8 20.166-8.689 22.33c0 0 27.946 2.006 23.065-22.33h25.9a9.787 9.787 0 0 0 9.763-9.763V117.6a9.8 9.8 0 0 0-9.752-9.77z" class="cls-3" data-name="Path 10753" transform="translate(-182.155 -57.008)"/>
        <g id="Group_10550" class="cls-5" data-name="Group 10550" transform="translate(482.766 82.165)">
            <rect id="Rectangle_2424" width="151.39" height="9.226" class="cls-6" data-name="Rectangle 2424" rx="4.613"/>
            <rect id="Rectangle_2425" width="124.921" height="9.226" class="cls-6" data-name="Rectangle 2425" rx="4.613" transform="translate(0 41.24)"/>
            <rect id="Rectangle_2426" width="89.929" height="9.226" class="cls-6" data-name="Rectangle 2426" rx="4.613" transform="translate(0 20.624)"/>
        </g>
        <path id="Path_10754" d="M140.128 596.48s2.812 3.681-1.3 9.242-7.512 10.269-6.138 13.72c0 0 6.209-10.324 11.264-10.466s1.735-6.288-3.826-12.496z" class="cls-6" data-name="Path 10754" transform="translate(-76.041 -159.679)"/>
        <path id="Path_10755" d="M140.171 596.48a4.645 4.645 0 0 1 .569 1.153c4.937 5.8 7.559 11.2 2.82 11.343-4.415.126-9.708 8.017-10.979 10.016a1.44 1.44 0 0 0 .15.45s6.208-10.324 11.264-10.466 1.737-6.288-3.824-12.496z" class="cls-8" data-name="Path 10755" transform="translate(-76.084 -159.679)"/>
        <path id="Path_10756" d="M148.638 602.2c0 1.3-.142 2.37-.324 2.37s-.324-1.051-.324-2.37.182-.687.363-.687.285-.613.285.687z" class="cls-23" data-name="Path 10756" transform="translate(-79.322 -160.704)"/>
        <path id="Path_10757" d="M150.5 604.145c-1.137.624-2.133 1-2.22.837s.79-.79 1.9-1.406.7-.166.79 0 .665-.047-.47.569z" class="cls-23" data-name="Path 10757" transform="translate(-79.381 -161.104)"/>
        <path id="Path_10758" d="M121.67 596.48s-2.812 3.681 1.3 9.242 7.512 10.269 6.137 13.72c0 0-6.208-10.324-11.264-10.466s-1.734-6.288 3.827-12.496z" class="cls-6" data-name="Path 10758" transform="translate(-72.464 -159.679)"/>
        <path id="Path_10759" d="M121.67 596.48a4.642 4.642 0 0 0-.569 1.153c-4.937 5.8-7.559 11.2-2.82 11.343 4.415.126 9.708 8.017 10.979 10.016-.04.15-.095.3-.15.45 0 0-6.208-10.324-11.264-10.466s-1.737-6.288 3.824-12.496z" class="cls-8" data-name="Path 10759" transform="translate(-72.464 -159.679)"/>
        <path id="Path_10760" d="M116.73 602.2c0 1.3.142 2.37.324 2.37s.324-1.051.324-2.37-.182-.687-.363-.687-.285-.613-.285.687z" class="cls-23" data-name="Path 10760" transform="translate(-72.754 -160.704)"/>
        <path id="Path_10761" d="M114.263 604.145c1.137.624 2.133 1 2.22.837s-.79-.79-1.9-1.406-.7-.166-.79 0-.675-.047.47.569z" class="cls-23" data-name="Path 10761" transform="translate(-72.088 -161.104)"/>
        <ellipse id="Ellipse_3341" cx="29.447" cy="4.518" class="cls-2" data-name="Ellipse 3341" rx="29.447" ry="4.518" transform="translate(27.199 478.902)"/>
        <path id="Path_10762" d="M143.926 618.814l-.142 1.145-.2 1.627-.087.679-.2 1.619-.079.679-.2 1.627-2.259 18.475c-.2 1.651-2.891 2.938-6.145 2.938h-11.731c-3.254 0-5.94-1.288-6.145-2.938l-2.259-18.465-.2-1.627-.079-.679-.2-1.619-.087-.679-.2-1.627-.142-1.146c-.111-.932 1.351-1.722 3.16-1.722h23.941c1.872-.009 3.328.781 3.254 1.713z" class="cls-24" data-name="Path 10762" transform="translate(-72.09 -164.012)"/>
        <path id="Path_10763" d="M82.724 577.23l-.2 1.627H52.9l-.2-1.627z" class="cls-25" data-name="Path 10763" transform="translate(-11.07 -121.282)"/>
        <path id="Path_10764" d="M82.521 580.15l-.2 1.619H53.255l-.205-1.619z" class="cls-25" data-name="Path 10764" transform="translate(-11.143 -121.896)"/>
        <path id="Path_10765" d="M82.312 583.06l-.2 1.627H53.607l-.2-1.627z" class="cls-25" data-name="Path 10765" transform="translate(-11.219 -122.507)"/>
        <ellipse id="Ellipse_3342" cx="66.382" cy="10.893" class="cls-2" data-name="Ellipse 3342" rx="66.382" ry="10.893" transform="translate(443.722 612.606)"/>
        <g id="Group_10552" class="cls-4" data-name="Group 10552" transform="translate(373.888 288.997)">
            <path id="Path_10766" d="M747.5 409.36H544.984a10.616 10.616 0 0 0-10.584 10.585v127.961a10.616 10.616 0 0 0 10.584 10.585h158.87s4.115 21.848-9.407 24.194c0 0 30.276 2.172 24.984-24.194H747.5a10.616 10.616 0 0 0 10.584-10.585V419.945A10.616 10.616 0 0 0 747.5 409.36z" data-name="Path 10766" transform="translate(-534.4 -409.36)"/>
            <g id="Group_10551" class="cls-5" data-name="Group 10551" transform="translate(29.81 56.311)">
                <rect id="Rectangle_2427" width="164.06" height="10" data-name="Rectangle 2427" rx="5" transform="translate(0 22.346)"/>
                <rect id="Rectangle_2428" width="71.137" height="10" data-name="Rectangle 2428" rx="5"/>
            </g>
        </g>
        <path id="Path_10767" d="M745.3 407.13H542.745a10.616 10.616 0 0 0-10.585 10.584v127.962a10.616 10.616 0 0 0 10.585 10.585h158.87s4.115 21.848-9.408 24.2c0 0 30.285 2.172 24.992-24.2h28.1a10.616 10.616 0 0 0 10.584-10.585V417.714A10.616 10.616 0 0 0 745.3 407.13z" class="cls-3" data-name="Path 10767" transform="translate(-160.041 -119.894)"/>
        <g id="Group_10553" class="cls-5" data-name="Group 10553" transform="translate(401.937 343.547)">
            <rect id="Rectangle_2429" width="164.06" height="10" class="cls-6" data-name="Rectangle 2429" rx="5" transform="translate(0 22.346)"/>
            <rect id="Rectangle_2430" width="71.137" height="10" class="cls-6" data-name="Rectangle 2430" rx="5"/>
        </g>
        <path id="Path_10768" d="M710.632 730.725c-.956-4.052-1.58-7.615-1.58-7.615a15.7 15.7 0 0 0-1.761-7.733v-9.266a27.343 27.343 0 0 1 2.062-4.273c1.469-2.567 0-11.967 0-11.967s-5.45-13.254-4.123-21.659-11.193-37.338-11.193-37.338a36.707 36.707 0 0 1 1.177-8.262 6.4 6.4 0 0 0 .158-1.73 1.944 1.944 0 0 0 0-.213v.071c-.19-5.529-4.574-15.94-4.574-15.94l.593-19.8s2.8-11.682-1.769-27.362c-1.58-5.466-2.615-9.85-3.262-13.223-.071-.387-.142-.79-.205-1.106 9.4-1.43 16.588-2.623 16.588-2.623s-5.434-22.8-9.115-26.753-6.619-16.588-6.619-16.588-1.919-16.106 1.177-20.806 3.531-12.82 3.531-12.82 7.109-5.134 7.954-7.409 2.37-7.409 2.37-10.118-.885-5.134-.593-6.556-2.062-6.84-.885-9.408a6.908 6.908 0 0 0 .474-2.472v-.071a34.933 34.933 0 0 0-.624-6.683 18.957 18.957 0 0 0-6.991-3.736l-.158-.616-.395-1.58a8.856 8.856 0 0 0-.7-.419v-.585l-.071-2.314 1.114-5.2c2.172-9.052-9.905-10.4-9.905-10.4a6.318 6.318 0 0 0-3.42-2.994c-2.433-.853-.4 13.61.735 14.534.853.7 3.491 5.229 4.739 7.457l.205.371a4.443 4.443 0 0 0-.553.577l.458 3.159.071.482a13.161 13.161 0 0 0-1.927 3.286s2.212 2.425 1.769 5.134a15.609 15.609 0 0 0 .727 6.264c-.126-.15-1.682-1.833-3.23-1.422s-5.893 1.714-5.893 1.714-3.239.569-2.938 1.28-2.212 3.847-2.212 3.847l-8.689-8.246c-.079-.245-.174-.49-.253-.75a20.721 20.721 0 0 1-.79-3.61 20.67 20.67 0 0 0 2.781-.885 6.017 6.017 0 0 0 2.37-1.54c.877-1.043 1.043-2.457 1.4-3.752.7-2.536 2.172-4.795 3.231-7.2a23.384 23.384 0 0 0 1.738-12.93 8.541 8.541 0 0 0-1.335-3.784c-1.422-1.959-4-2.749-5.877-4.313s-3.081-3.949-5.261-5.111c-1.975-1.058-4.384-.932-6.611-.569a35.617 35.617 0 0 0-12.33 4.487c-1.272.75-2.662 1.619-4.123 1.359a5.558 5.558 0 0 1-2.978-2.188.146.146 0 0 1 .039-.119l-.095-.111a15.3 15.3 0 0 0-1.287 6.453 9.19 9.19 0 0 0 .04 1.043v.663a1.58 1.58 0 0 1-.063.466 3.4 3.4 0 0 1-.79 1.177 6.169 6.169 0 0 0-.711.964 3.165 3.165 0 0 1 .118-.355 5.173 5.173 0 0 0-.9 2.749 2.718 2.718 0 0 0 .648 1.959 9.475 9.475 0 0 0 1.422 1.145 16.588 16.588 0 0 0 7.9 17.251c.1.245.205.5.3.75a20.768 20.768 0 0 1 1.58 9.479 3.43 3.43 0 0 1-.111.7c-.047.229-.213.237-.308.363s-14.368.142-17.757-2.923-8.539 7.48-8.539 7.48-5.15 1-6.177 0-7.07-.142-7.07-.142a12.993 12.993 0 0 0-8.941-3.27 26.572 26.572 0 0 0-6.588-3.665l-.158-.055a7.413 7.413 0 0 0-3.238-.411s-7.069-5.845-9.131-8.973-11.849-14.763-11.919-14.818v-.561l-.111-1.7a5.632 5.632 0 0 1-.877.079c-.056-.166-.119-.364-.2-.584a32.783 32.783 0 0 0-2.085-4.795s0-2.133.624-2.67-.261-8.373-.261-8.373-6.365-14.895-12.065-3.781c0 0-10.782 7.2-1.73 15.569 0 0 3.61 1.746 4.115 3.16.34.9 1.58 3.412 2.37 5.079l.371.75-.1.087.134 1.4.055.537c-1.706.972-2.86 1.927-2.583 2.654a16.072 16.072 0 0 1 1.035 3.847s12.464 15.64 14.084 22.354c0 0 33.562 19.945 44.6 21.367L608.839 473a79.8 79.8 0 0 0-.442 8.12c.142 2.141-1.327 11.848-1.327 11.848s-1.911 14.218-3.531 16.24-1.287 10.529-1.287 10.529a72 72 0 0 1-2.212 12.109c-1.58 5.419-.443 12.117-.443 12.117s-5.592 12.82 7.8 4.131c0 0 6.58-.411 14.155-.672v.79c0 .971 0 2.03-.047 3.159-.1 7.346-.142 17.464.19 25.126.593 13.531 4.74 40.324 4.74 40.324v13.428a18.468 18.468 0 0 0-.387 3.847 25.079 25.079 0 0 0 3.626 13.476l1.035 8.973s2.417 5.916 2.464 9.479a5.489 5.489 0 0 1-.1.861 6.125 6.125 0 0 0-.119 1.374c-.134 4.076 2.322 13.823 2.322 13.823s.142 9.834 1.58 10.4c1.256.49-1.682 5.672-2.559 7.156a.526.526 0 0 0-.055-.284l-.182.3a6.891 6.891 0 0 0-.458 2.48 3.578 3.578 0 0 0 1.635 3.46c2.8 1.706 4.3 3.16 1.919 3.7a25.545 25.545 0 0 0-2.591.545l-.126-.332a1.58 1.58 0 0 0-.964 1.722 7.169 7.169 0 0 0 .877 3.333 37.994 37.994 0 0 0 3.949 7.267l1.137-.126a6.087 6.087 0 0 1-.656 1.216 4.692 4.692 0 0 1-1.667 1.477 5.023 5.023 0 0 1-2.014.687 5.7 5.7 0 0 0-4.171 2.03c-1.469 1.9-2.37 4.487.514 6.761l10.529 3.634s18.1 2.37 17.148-1.714-1.58-7.622-1.58-7.622a16.056 16.056 0 0 0-1.469-7.2 9.691 9.691 0 0 0-.64-1.058l.64-.071s1.327-8.981 3.088-10.687c.411-.4.505-.7.4-.932.182-.49-.276-.79-.869-.94l-.126.355a8.626 8.626 0 0 0-1.761-.2s-.585-4.7 1.327-6.406a1.817 1.817 0 0 0 .371-1.4 7.853 7.853 0 0 0-.2-1.92l-.071.111c-.964-4.265-4.226-11.058-4.226-11.058s-.15-4.273 1.035-5.987-.15-23.223-.15-23.223.442-10.4-.885-15.245 1.619-10.545 1.619-10.545v-.316l.04-.071s-.071-.64-.174-1.635v.095c-.3-2.749-.861-7.741-1.272-10.047-.592-3.278.142-18.957.142-18.957l2.654-6.7 4.739 11.548 5.008 15.387s2.48 3.246 2.536 6.54a3.272 3.272 0 0 1 0 .482 9.277 9.277 0 0 0-.055 1.035 9.113 9.113 0 0 0 1.524 5.474s1.327 7.267 3.389 9.123 2.062 5.411 2.062 5.411 2.5 10.545 3.681 12.4c.987 1.58 1.043 5.853 1.035 7.165v.387s.348 3.768.332 6.935v1.13a.335.335 0 0 1 0-.087 11.574 11.574 0 0 1-.308 2.567.265.265 0 0 1-.048.15l.048-.537a27.146 27.146 0 0 0-.79 6.572c-.071 3.792.505 8.278 2.8 10.908 3.949 4.566 6.477 4 6.477 4s-1.912 5.7-4.273 6.833a1.339 1.339 0 0 0-.245.166 2.439 2.439 0 0 0-.063-.332 2.766 2.766 0 0 0-.687 2.125c-.174 2.5 1.406 6.572 2.915 8.444a4.6 4.6 0 0 0 1.99 1.161l-.371.229a8.138 8.138 0 0 1-.79.387 3.823 3.823 0 0 1-1.2.308 5.64 5.64 0 0 0-4.171 2.03c-1.469 1.9-2.369 4.479.513 6.754l10.529 3.633s17.997 2.33 17.041-1.738z" class="cls-26" data-name="Path 10768" transform="translate(-162.329 -114.636)"/>
        <path id="Path_10769" d="M664.451 826.681l-10.189-3.633c-2.812-2.275-1.912-4.858-.5-6.761a5.45 5.45 0 0 1 4.036-2.03 4.742 4.742 0 0 0 1.951-.687 4.573 4.573 0 0 0 1.579-1.477 7.448 7.448 0 0 0 1.161-3.949s11.193-3.278 14.218 0a8.409 8.409 0 0 1 1.359 1.982 16.594 16.594 0 0 1 1.422 7.2s.576 3.562 1.493 7.622-16.53 1.733-16.53 1.733z" class="cls-27" data-name="Path 10769" transform="translate(-185.31 -203.846)"/>
        <path id="Path_10770" d="M727.59 820.315l-10.19-3.634c-2.812-2.275-1.919-4.858-.5-6.753a5.394 5.394 0 0 1 4.036-2.03 3.582 3.582 0 0 0 1.161-.308 5.976 5.976 0 0 0 .79-.387c2.844-1.58 2.772-5.411 2.772-5.411s11.185-3.278 14.218 0a7.624 7.624 0 0 1 1.066 1.454 16.117 16.117 0 0 1 1.714 7.741s.569 3.563 1.493 7.623-16.56 1.705-16.56 1.705z" class="cls-27" data-name="Path 10770" transform="translate(-198.575 -202.512)"/>
        <path id="Path_10771" d="M679.151 808.151a8.425 8.425 0 0 1 1.359 1.983l-16.769 1.943a7.45 7.45 0 0 0 1.161-3.949s11.192-3.255 14.249.023z" class="cls-8" data-name="Path 10771" transform="translate(-187.688 -203.847)"/>
        <path id="Path_10772" d="M742.718 803.23v3.16c-2.6 4.3-15.213 3.357-18.878 1.2a5.961 5.961 0 0 0 .79-.387c2.844-1.58 2.773-5.411 2.773-5.411s11.185-3.278 14.218 0a7.642 7.642 0 0 1 1.097 1.438z" class="cls-8" data-name="Path 10772" transform="translate(-200.315 -202.512)"/>
        <path id="Path_10773" d="M727.61 742.579a29.064 29.064 0 0 0-2 4.273v11.256c-2.843 4.739-17.662 3.16-19.66.569s-4.131-9.257-1.848-10.395 4.131-6.841 4.131-6.841-2.425.569-6.272-3.989-2.709-14.676-1.99-17.1 0-10.545 0-10.545.142-5.695-1-7.551-3.563-12.393-3.563-12.393 0-3.562-1.99-5.419-3.278-9.115-3.278-9.115a9.361 9.361 0 0 1-1.445-6.122c.434-3.562-2.417-7.409-2.417-7.409l-4.842-15.387-4.566-11.54-2.543 6.69s-.719 15.671-.142 18.957 1.422 11.967 1.422 11.967-2.851 5.7-1.58 10.545.853 15.245.853 15.245 1.279 21.516.142 23.223-1 5.987-1 5.987 5.838 12.536 3.95 14.218-1.288 6.414-1.288 6.414 3.949 0 2.283 1.706-2.915 10.711-2.915 10.711l-17.228 1.99a35.787 35.787 0 0 1-3.862-7.267c-2.283-5.276.427-4.739 2.725-5.269s.837-2-1.864-3.7-1.146-5.529-1.146-5.529 4.131-6.983 2.709-7.559-1.58-10.395-1.58-10.395-2.851-11.69-2.141-14.818-2.283-10.687-2.283-10.687l-.995-8.981a24.7 24.7 0 0 1-3.16-16.951v-13.852s-3.949-26.785-4.557-40.324c-.364-8.689-.261-20.5-.142-27.883.071-4.139.142-6.88.142-6.88L704.245 576a50.855 50.855 0 0 0 1.114 9.139c.624 3.381 1.58 7.757 3.16 13.231 4.415 15.671 1.706 27.354 1.706 27.354l-.569 19.81s5.419 13.246 4.273 17.812a37.888 37.888 0 0 0-1.137 8.262s12.109 28.926 10.829 37.33 3.949 21.662 3.949 21.662 1.461 9.412.04 11.979z" class="cls-17" data-name="Path 10773" transform="translate(-183.208 -155.376)"/>
        <path id="Path_10774" d="M705.71 692.246l18.744-2.5s-10.616 10.833-18.744 2.5z" class="cls-15" data-name="Path 10774" transform="translate(-196.506 -179.276)"/>
        <path id="Path_10775" d="M725.09 666.57s.64 6.627-3.42 9.123c.008 0 7.275-1.145 3.42-9.123z" class="cls-8" data-name="Path 10775" transform="translate(-199.859 -174.406)"/>
        <path id="Path_10776" d="M718.669 639.88s-15.663 12.891-21.327 11.848 21.327-11.848 21.327-11.848z" class="cls-8" data-name="Path 10776" transform="translate(-194.583 -168.798)"/>
        <path id="Path_10777" d="M673.049 700.58s-11.9 2.7-12.251 7.48 12.251-7.48 12.251-7.48z" class="cls-8" data-name="Path 10777" transform="translate(-187.068 -181.552)"/>
        <path id="Path_10778" d="M676.191 775.8s-16.809 3.159-12.037 5.269a84.725 84.725 0 0 0 12.638 3.847s5.386.284-.601-9.116z" class="cls-15" data-name="Path 10778" transform="translate(-187.595 -197.357)"/>
        <g id="Group_10554" class="cls-28" data-name="Group 10554" transform="translate(459.199 426.643)">
            <path id="Path_10779" d="M659.5 786.121a3.35 3.35 0 0 1-1.532-2.441l-.174.3s-1.58 3.847 1.137 5.529c.316.2.608.4.877.585.506-.095 1.043-.166 1.58-.292 2.279-.554.826-1.975-1.888-3.681z" data-name="Path 10779" transform="translate(-645.542 -625.655)"/>
            <path id="Path_10780" d="M687.288 784.54c.466-.426.45-1.524.166-2.93a7.946 7.946 0 0 0-.956 4.131 3.469 3.469 0 0 1 .79-1.201z" data-name="Path 10780" transform="translate(-651.667 -625.22)"/>
            <path id="Path_10781" d="M683.927 695.58a19.163 19.163 0 0 0-1.137 5.237 20.615 20.615 0 0 1 1.3-3.6s-.06-.642-.163-1.637z" data-name="Path 10781" transform="translate(-650.889 -607.144)"/>
            <path id="Path_10782" d="M732.918 685.69a6.535 6.535 0 0 0 .158-1.58 36.785 36.785 0 0 0-.466 2.915 7.689 7.689 0 0 1 .308-1.335z" data-name="Path 10782" transform="translate(-661.357 -604.734)"/>
            <path id="Path_10783" d="M683.613 758.869a9.085 9.085 0 0 0 .427-3.159 10.729 10.729 0 0 0-.79 4 3.839 3.839 0 0 1 .363-.841z" data-name="Path 10783" transform="translate(-650.986 -619.779)"/>
            <path id="Path_10784" d="M681.669 793.72a56.073 56.073 0 0 0-1.959 8.752l-17.228 2a36.113 36.113 0 0 1-3.863-7.267 16.26 16.26 0 0 1-.482-1.256c-1.035.474-1.438 1.58-.087 4.676a36.453 36.453 0 0 0 3.855 7.267l17.251-2s1.28-8.973 2.986-10.687c.83-.837.293-1.264-.473-1.485z" data-name="Path 10784" transform="translate(-645.51 -627.765)"/>
            <path id="Path_10785" d="M655.8 723.991s.142 9.834 1.58 10.4c.719-1.627 1.2-3.16.561-3.428-1.43-.569-1.58-10.4-1.58-10.4s-2.844-11.682-2.133-14.818-2.283-10.687-2.283-10.687l-1-8.973a24.669 24.669 0 0 1-3.16-16.959V655.3s-3.949-26.785-4.558-40.284c-.364-8.689-.261-20.537-.142-27.883 0-1.335.04-2.52.063-3.515l-.49.047s-.079 2.741-.142 6.887c-.126 7.378-.229 19.21.142 27.875.569 13.539 4.558 40.324 4.558 40.324v13.823a24.669 24.669 0 0 0 3.159 16.959l1 8.918s2.994 7.551 2.283 10.687 2.142 14.853 2.142 14.853z" data-name="Path 10785" transform="translate(-642.403 -583.62)"/>
            <path id="Path_10786" d="M722.675 800.659a16.581 16.581 0 0 1-2.725-6.769c-1.761 1.58.26 7.749 2.156 10.19 1.99 2.559 16.809 4.131 19.66-.569v-2.718c-3.854 3.823-17.18 2.291-19.091-.134z" data-name="Path 10786" transform="translate(-658.555 -627.8)"/>
            <path id="Path_10787" d="M750.468 782.046a27.648 27.648 0 0 0-2 4.273v1.981a35.28 35.28 0 0 1 1.43-2.859 8.521 8.521 0 0 0 .624-3.523.481.481 0 0 0-.054.128z" data-name="Path 10787" transform="translate(-664.689 -625.285)"/>
            <path id="Path_10788" d="M722.52 779.331a27.522 27.522 0 0 0 1.406-3.388s-2.425.569-6.272-3.949c-2.8-3.318-2.962-9.581-2.559-13.673-.719 2.417-1.856 12.536 1.99 17.093 2.521 2.945 4.415 3.727 5.435 3.917z" data-name="Path 10788" transform="translate(-657.523 -620.326)"/>
            <path id="Path_10789" d="M708.588 724.072a76.13 76.13 0 0 1 .284 8.444 12.241 12.241 0 0 1 .292-1.327c.719-2.417 0-10.537 0-10.537s.142-5.7-1-7.551-3.562-12.4-3.562-12.4 0-3.562-1.99-5.411-3.278-9.123-3.278-9.123a9.329 9.329 0 0 1-1.43-6.122c.426-3.562-2.417-7.409-2.417-7.409l-4.85-15.4-4.558-11.54-2.567 6.7s0 .845-.087 2.164l2.085-5.442 4.557 11.54 4.866 15.395s2.851 3.847 2.425 7.409a9.329 9.329 0 0 0 1.43 6.122s1.279 7.267 3.27 9.123 2 5.411 2 5.411 2.425 10.545 3.562 12.4.968 7.554.968 7.554z" data-name="Path 10789" transform="translate(-651.024 -596.664)"/>
        </g>
        <path id="Path_10790" d="M726.706 409.429l-1.074 5.2.063 2.314.047 1.714-5.948.608-.663-1.232c-1.232-2.228-3.784-6.761-4.613-7.457-1.1-.924-3.057-15.387-.7-14.534a6.222 6.222 0 0 1 3.309 3s11.68 1.374 9.579 10.387z" class="cls-29" data-name="Path 10790" transform="translate(-197.976 -117.557)"/>
        <path id="Path_10791" d="M727.451 424.08l-5.948.608-.664-1.232a5.253 5.253 0 0 1 6.564-1.082z" class="cls-8" data-name="Path 10791" transform="translate(-199.685 -122.95)"/>
        <path id="Path_10792" d="M728.862 427.029l-7.844 1.817-.158-1.169-.45-3.16a5.394 5.394 0 0 1 7.59-1.034l.387 1.58z" class="cls-18" data-name="Path 10792" transform="translate(-199.594 -123.088)"/>
        <path id="Path_10793" d="M565.289 407.1l-8.365 4.487-.79-1.58c-.79-1.667-1.983-4.178-2.307-5.079-.5-1.382-3.989-3.16-3.989-3.16-8.76-8.373 1.675-15.569 1.675-15.569 5.529-11.114 11.682 3.776 11.682 3.776s.853 7.844.253 8.373-.608 2.67-.608 2.67a32.421 32.421 0 0 1 2.022 4.795c.292.802.427 1.287.427 1.287z" class="cls-29" data-name="Path 10793" transform="translate(-163.019 -114.632)"/>
        <path id="Path_10794" d="M567.895 413.408l-8.365 4.487-.79-1.58c1.177-.98 5.371-4.376 6.745-4.226a10.512 10.512 0 0 0 1.983.055c.292.774.427 1.264.427 1.264z" class="cls-8" data-name="Path 10794" transform="translate(-165.626 -120.935)"/>
        <path id="Path_10795" d="M568.823 416.127l-9.4 4.637-.19-2.022-.134-1.4s5.45-4.668 7.062-4.495a8.5 8.5 0 0 0 2.457 0l.1 1.69z" class="cls-18" data-name="Path 10795" transform="translate(-165.701 -121.095)"/>
        <path id="Path_10796" d="M692.447 448.322s-41.011 4.629-33.341 2.141c5.332-1.738 7.449-5.126 7.9-8.894a21.367 21.367 0 0 0-1.532-9.479 40.788 40.788 0 0 0-3.665-7.409s31.351-17.243 25.079-1.58a25.116 25.116 0 0 0-1.777 7.425 20.763 20.763 0 0 0 .79 7.512 22.332 22.332 0 0 0 6.548 10.284z" class="cls-29" data-name="Path 10796" transform="translate(-186.513 -121.869)"/>
        <path id="Path_10797" d="M687.859 423.106a25.117 25.117 0 0 0-1.777 7.425c-2.954 2.48-6.193 2.314-10.347 2.314-3.16 0-6.73.79-9.289-.79a40.8 40.8 0 0 0-3.665-7.409s31.349-17.227 25.078-1.54z" class="cls-8" data-name="Path 10797" transform="translate(-187.486 -121.866)"/>
        <circle id="Ellipse_3343" cx="16.959" cy="16.959" r="16.959" class="cls-29" data-name="Ellipse 3343" transform="translate(470.729 278.152)"/>
        <path id="Path_10798" d="M692.447 453.576s-41.011 4.629-33.341 2.141c5.332-1.738 7.449-5.126 7.9-8.894 2.038-2.212 6.137-3.807 8.776-4.652a12.249 12.249 0 0 1 7.433-.118 10.315 10.315 0 0 1 2.7 1.248 22.328 22.328 0 0 0 6.532 10.275z" class="cls-8" data-name="Path 10798" transform="translate(-186.513 -127.123)"/>
        <path id="Path_10799" d="M728.981 427.694l-7.844 1.817-.158-1.169a6.926 6.926 0 0 1 7.528-2.575z" class="cls-8" data-name="Path 10799" transform="translate(-199.714 -123.753)"/>
        <path id="Path_10800" d="M568.859 416.578l-9.4 4.636-.19-2.022a69.068 69.068 0 0 1 9.479-4.2z" class="cls-8" data-name="Path 10800" transform="translate(-165.737 -121.546)"/>
        <path id="Path_10801" d="M705.392 585.155c-15.876 2.512-38.483 5.774-42.069 4.684-2.97-.908-12.472-.79-20.742-.529.071-4.139.142-6.88.142-6.88l61.555-6.43a50.875 50.875 0 0 0 1.114 9.155z" class="cls-8" data-name="Path 10801" transform="translate(-183.242 -155.376)"/>
        <path id="Path_10802" d="M703.073 547.731s-52.291 8.981-57.907 7.267-34.423.142-34.423.142c-12.962 8.689-7.552-4.131-7.552-4.131s-1.137-6.7.427-12.109a73.767 73.767 0 0 0 2.18-12.109s-.284-8.555 1.279-10.545S610.5 500 610.5 500s1.43-9.684 1.288-11.848a81.043 81.043 0 0 1 .427-8.12l1.848-9.976c-10.687-1.422-43.175-21.374-43.175-21.374-1.58-6.69-13.673-22.37-13.673-22.37a16.271 16.271 0 0 0-1-3.847c-.853-2.275 11.974-6.832 11.974-6.832s9.542 11.682 11.54 14.818 8.831 8.973 8.831 8.973a6.953 6.953 0 0 1 3.16.411l.166.047a25.549 25.549 0 0 1 6.382 3.665 12.369 12.369 0 0 1 8.689 3.278s5.845-.853 6.84.142 5.987 0 5.987 0 4.984-10.545 8.262-7.48 17.18 2.923 17.18 2.923c1.856-2.465 6.366-4.234 9.186-5.142a12.306 12.306 0 0 1 7.433-.119 9.583 9.583 0 0 1 2.931 1.414l8.436 8.262s2.425-3.16 2.141-3.847 2.851-1.28 2.851-1.28 4.131-1.288 5.7-1.714 3 1.272 3.159 1.422a16.708 16.708 0 0 1-.7-6.264c.419-2.63-1.714-5.134-1.714-5.134 4.992-12.251 16.248-1.991 16.248-1.991s1.279 6.7.142 9.257 1.137 7.986.853 9.408.569 3.847.569 6.556-1.422 7.836-2.283 10.11-7.693 7.409-7.693 7.409-.427 8.128-3.421 12.828-1.224 20.805-1.224 20.805 2.852 12.567 6.438 16.588 8.795 26.753 8.795 26.753z" class="cls-30" data-name="Path 10802" transform="translate(-165.085 -121.68)"/>
        <path id="Path_10803" d="M643.755 461.856s-1.58-4.7-2.994-5.126a33.906 33.906 0 0 1-4.131-1.856l.917-1.754s5.347 1.469 6.208 3.033 0 5.703 0 5.703z" class="cls-8" data-name="Path 10803" transform="translate(-181.991 -129.557)"/>
        <path id="Path_10804" d="M605.94 450.01c-.285 1.422-12.97 2.709-12.97 2.709l6.414-6.43.158.055a25.546 25.546 0 0 1 6.398 3.666z" class="cls-8" data-name="Path 10804" transform="translate(-172.818 -128.122)"/>
        <circle id="Ellipse_3344" cx="1.137" cy="1.137" r="1.137" class="cls-17" data-name="Ellipse 3344" transform="translate(395.287 301.201)"/>
        <circle id="Ellipse_3345" cx="1.137" cy="1.137" r="1.137" class="cls-17" data-name="Ellipse 3345" transform="translate(396.748 303.483)"/>
        <circle id="Ellipse_3346" cx="1.137" cy="1.137" r="1.137" class="cls-17" data-name="Ellipse 3346" transform="translate(398.177 305.585)"/>
        <circle id="Ellipse_3347" cx="1.137" cy="1.137" r="1.137" class="cls-17" data-name="Ellipse 3347" transform="translate(399.67 307.867)"/>
        <circle id="Ellipse_3348" cx=".924" cy=".924" r=".924" class="cls-17" data-name="Ellipse 3348" transform="translate(534.196 307.954)"/>
        <circle id="Ellipse_3349" cx=".924" cy=".924" r=".924" class="cls-17" data-name="Ellipse 3349" transform="translate(534.338 310.055)"/>
        <circle id="Ellipse_3350" cx=".924" cy=".924" r=".924" class="cls-17" data-name="Ellipse 3350" transform="translate(534.465 312.156)"/>
        <path id="Path_10805" d="M645.74 513.06c-.134-.166 31.983 40.395 56.919 16.959 0 0-39.4 5.339-56.919-16.959z" class="cls-8" data-name="Path 10805" transform="translate(-183.905 -142.152)"/>
        <path id="Path_10806" d="M622.38 539.76s19.218.521 21.224 6.05v5.758a3.672 3.672 0 0 1-3.57 0c-1.935-1.05-13.562-6.951-17.654-4.115z" class="cls-8" data-name="Path 10806" transform="translate(-178.997 -147.762)"/>
        <path id="Path_10807" d="M622.83 539.76s18.381.5 20.3 5.774v5.474a3.524 3.524 0 0 1-3.421 0c-1.848-1-12.962-6.627-16.88-3.949z" class="cls-30" data-name="Path 10807" transform="translate(-179.092 -147.762)"/>
        <path id="Path_10808" d="M635.66 486.92a62.1 62.1 0 0 0 7.449 12.788 50.142 50.142 0 0 0 11.674 11.272s-18.807-21.414-19.123-24.06z" class="cls-8" data-name="Path 10808" transform="translate(-181.788 -136.659)"/>
        <path id="Path_10809" d="M627.7 458.65s3.207 13.839 11.469 18.547z" class="cls-8" data-name="Path 10809" transform="translate(-180.115 -130.72)"/>
        <path id="Path_10810" d="M621.394 460.419c-.079-.253-2.844 10.948 10.656 17.148.031 0-5.735-1.951-10.656-17.148z" class="cls-8" data-name="Path 10810" transform="translate(-178.73 -131.09)"/>
        <path id="Path_10811" d="M727.719 448.668c-.214 0 6.667 4.376 8.531 6.406-.001 0-4.471-6.691-8.531-6.406z" class="cls-8" data-name="Path 10811" transform="translate(-201.129 -128.62)"/>
        <path id="Path_10812" d="M668.926 426.382a3.609 3.609 0 0 0 1.327 2.291 3.655 3.655 0 0 0 1.58.355c5.174.316 10.553.545 15.332-1.446a5.794 5.794 0 0 0 2.37-1.54 9.549 9.549 0 0 0 1.359-3.752c.664-2.535 2.094-4.795 3.16-7.2a24.163 24.163 0 0 0 1.675-12.931 8.575 8.575 0 0 0-1.288-3.784c-1.374-1.959-3.87-2.749-5.687-4.3s-2.978-3.949-5.095-5.119c-1.912-1.058-4.242-.932-6.4-.569a33.762 33.762 0 0 0-12.022 4.487c-1.224.75-2.575 1.619-3.949 1.359a5.517 5.517 0 0 1-2.938-2.251 15.8 15.8 0 0 0-1.264 7.385 3.28 3.28 0 0 1 0 1.114 3.436 3.436 0 0 1-.79 1.177c-1.279 1.477-2.077 3.823-.79 5.316.545.656 1.39 1.011 1.927 1.675.956 1.193.632 2.9.609 4.431a2.258 2.258 0 0 0 .379 1.5 2.188 2.188 0 0 0 2.093.5 5.81 5.81 0 0 1 2.228-.213 3.666 3.666 0 0 1 1.935 1.493c2.323 3.023 3.246 6.364 4.249 10.022z" class="cls-27" data-name="Path 10812" transform="translate(-185.82 -115.9)"/>
        <g id="Group_10555" class="cls-4" data-name="Group 10555" transform="translate(468.98 275.909)">
            <path id="Path_10813" d="M690.065 428.5a5.733 5.733 0 0 1-2.37 1.58c-4.739 1.99-10.158 1.761-15.332 1.438a3.446 3.446 0 0 1-1.58-.355 3.585 3.585 0 0 1-1.327-2.291c-1-3.649-1.927-6.991-4.321-10.024a3.662 3.662 0 0 0-1.935-1.493 5.655 5.655 0 0 0-2.228.213 2.2 2.2 0 0 1-2.07-.5 2.277 2.277 0 0 1-.379-1.509c0-1.524.348-3.238-.608-4.423-.537-.671-1.374-1.019-1.927-1.674a3.349 3.349 0 0 1-.331-3.4c-.9 1.438-1.3 3.286-.237 4.542.545.656 1.39 1.011 1.927 1.675.956 1.193.632 2.9.608 4.431a2.256 2.256 0 0 0 .379 1.5 2.187 2.187 0 0 0 2.093.5 5.81 5.81 0 0 1 2.228-.213 3.666 3.666 0 0 1 1.935 1.493c2.37 3.033 3.318 6.374 4.321 10.031a2.678 2.678 0 0 0 2.923 2.646c5.174.316 10.553.545 15.332-1.446a5.8 5.8 0 0 0 2.37-1.54 4.531 4.531 0 0 0 .734-1.374 2.381 2.381 0 0 1-.205.193z" data-name="Path 10813" transform="translate(-654.786 -395.578)"/>
            <path id="Path_10814" d="M657.656 401a2.369 2.369 0 0 0 .521-.853 3.294 3.294 0 0 0 0-1.114 15.71 15.71 0 0 1 .79-6.137l-.095-.111a15.687 15.687 0 0 0-1.264 7.385 4.821 4.821 0 0 1 .048.83z" data-name="Path 10814" transform="translate(-655.371 -392.79)"/>
        </g>
        <path id="Path_10815" d="M668.84 449.469s21.185 2.8 23.088-.379" class="cls-8" data-name="Path 10815" transform="translate(-188.759 -128.711)"/>
        <path id="Path_10816" d="M721 438.47s11.761 0 14.352 4.431" class="cls-8" data-name="Path 10816" transform="translate(-199.718 -126.479)"/>
        <path id="Path_10817" d="M1040.661 425s1.469 1.919-.679 4.826-3.949 5.363-3.207 7.172c0 0 3.246-5.395 5.885-5.474s.908-3.317-1.999-6.524z" class="cls-6" data-name="Path 10817" transform="translate(-266.031 -123.649)"/>
        <path id="Path_10818" d="M1040.685 425a2.615 2.615 0 0 1 .3.6c2.575 3.033 3.949 5.853 1.469 5.924-2.307.071-5.071 4.194-5.734 5.237a.7.7 0 0 0 .079.237c.031.079 3.246-5.395 5.884-5.474s.909-3.317-1.998-6.524z" class="cls-8" data-name="Path 10818" transform="translate(-266.055 -123.649)"/>
        <path id="Path_10819" d="M1045.109 427.935c0 .679-.071 1.232-.166 1.232s-.174-.553-.174-1.232.094-.355.19-.355.15-.317.15.355z" class="cls-23" data-name="Path 10819" transform="translate(-267.747 -124.175)"/>
        <path id="Path_10820" d="M1046.082 428.956c-.592.324-1.114.521-1.153.434s.395-.411 1-.735.355-.087.4 0 .354-.023-.247.301z" class="cls-23" data-name="Path 10820" transform="translate(-267.78 -124.383)"/>
        <path id="Path_10821" d="M1031.019 425s-1.477 1.919.679 4.826 3.949 5.363 3.207 7.172c0 0-3.247-5.395-5.893-5.474s-.9-3.317 2.007-6.524z" class="cls-6" data-name="Path 10821" transform="translate(-264.162 -123.649)"/>
        <path id="Path_10822" d="M1031.019 425a2.415 2.415 0 0 0-.308.6c-2.575 3.033-3.95 5.853-1.469 5.924 2.307.071 5.079 4.194 5.743 5.237a.7.7 0 0 1-.079.237c-.032.079-3.247-5.395-5.893-5.474s-.901-3.317 2.006-6.524z" class="cls-8" data-name="Path 10822" transform="translate(-264.162 -123.649)"/>
        <path id="Path_10823" d="M1028.43 427.936c0 .679.079 1.232.174 1.232a2.5 2.5 0 0 0 .165-1.232c0-.672-.094-.356-.189-.356s-.15-.316-.15.356z" class="cls-23" data-name="Path 10823" transform="translate(-264.314 -124.176)"/>
        <path id="Path_10824" d="M1027.143 428.956c.6.324 1.114.521 1.161.434s-.4-.411-1-.735-.363-.087-.411 0-.342-.023.25.301z" class="cls-23" data-name="Path 10824" transform="translate(-263.967 -124.383)"/>
        <path id="Path_10825" d="M1029 439.228s4.115-.126 5.355-1.011 6.319-1.935 6.643-.521 6.185 7.046 1.58 7.109-10.8-.719-12.038-1.477-1.54-4.1-1.54-4.1z" class="cls-31" data-name="Path 10825" transform="translate(-264.433 -126.172)"/>
        <path id="Path_10826" d="M1042.633 444.883c-4.645 0-10.8-.727-12.03-1.477-.948-.577-1.319-2.638-1.445-3.586H1029s.26 3.325 1.5 4.076 7.385 1.517 12.038 1.477c1.343 0 1.8-.49 1.778-1.193-.175.427-.679.695-1.683.703z" class="cls-32" data-name="Path 10826" transform="translate(-264.433 -126.763)"/>
    </g>
</svg>
